<mxfile host="Electron" agent="Mozilla/5.0 (Windows NT 10.0; Win64; x64) AppleWebKit/537.36 (KHTML, like Gecko) draw.io/28.0.6 Chrome/138.0.7204.100 Electron/37.2.3 Safari/537.36" version="28.0.6">
  <diagram name="Page-1" id="Fc7U0pPD9r9OIFH3dabT">
    <mxGraphModel dx="1240" dy="738" grid="1" gridSize="10" guides="1" tooltips="1" connect="1" arrows="1" fold="1" page="1" pageScale="1" pageWidth="1100" pageHeight="850" math="0" shadow="0">
      <root>
        <mxCell id="0" />
        <mxCell id="1" parent="0" />
        <mxCell id="JGCPPYY_YPL1akn_zZar-6" value="" style="shape=image;verticalLabelPosition=bottom;labelBackgroundColor=default;verticalAlign=top;aspect=fixed;imageAspect=0;image=data:image/png,iVBORw0KGgoAAAANSUhEUgAAAWwAAAQLCAYAAACvVpP8AAAAAXNSR0IArs4c6QAAAARnQU1BAACxjwv8YQUAAAAJcEhZcwAADsMAAA7DAcdvqGQAAKoVSURBVHhe7f0LgBxVmfePPxMSSLiGa0TUcOlOGEK7boR1Z1AjYJAeZnWiS+PqOmZXnXFZX5x5+cVVYFxfonjJuztDVuGdcfkbs6/6OijM7g4zSAQEZUZF46UDQ9JDICpguEjCLSG3+Z/n1DnVp6qruqvvVdPfTzhM1anLOXXpbz311DnPaZoREAAAgNAzR/0FAAAQciDYAAAQERwukYl7/pO2/nCA5rwwLeYKeUqa6NCxMVr6zh5qveg9Kg8AAEC1sAWbxbrpvtXUctouuSAok08spJkVGyDaAABQZWyXyCOb+oOL9REnELXdRXTqCvrL1+6ih+66US0AAABQLWzBnvPidto/M5cOHX0G0crbiFZ8g2jesWqpwfyTidrvJXrNW2nmsPm0++BxdOjF36uFAAAAqoUt2HsPHU7PHziB9p33v2n/n7aJJfOIzvkHtVQx/xQh1vcQHRenmbtW0e7Hf0r7Zo4g/5aB49Td1ERNdrqAbmT3eLFM30gXlLptMYx3G3XtFrUXVKVsPi9F7rMC9RjvNq9FNl1Q9RPrxn1fNFG3PNn1ooTr4cP0jRdQk+NgpunGC4xjveBGkZMHvgfl9l51qlw985K3DkyN6lEt7OOzkNfMuBed168y8G/PuVuPc+iqlxdZC5tmaP6cPdT06nN0cOEy+UGRjm9WSwULFhH9lRDrY8+imXs+QC/tfk6KdWFaaSAzI0U9M0DU8+ECN6wXsU/SAzMP0CdFlYon4M3FgthGNCbqyXWdyZxD2/jclVV2ObjqXYF6JAfVsc2MUZdxXR6o/cEJsuVzGkyq7Cgj7qEPD6coow9GPmTj9PB12eOc+SbRHb6/SSHun99CA2vqeTLCUAeTSj8cnMfHYh3vOTf7uxdpjNoqLtrJji4aGjH2Ob2NttAEDd+RPbDpbVuo9Zy4mvPGFuwj5rxKxx72IjX97FO0/8lJOvjUJNFZVxCd/TEh1sqyPuZMKdZ0zj/Ske8eJZq7gNuK0Lym/Wov+Yl98jrqmhgmo47hIfMwTbSeQ/bpEgL5ydkgIqBmTN8xTJS6jKzHnxCGD/fQuWOuh1G++2r6Dho+97o6GAcGYahDNTGPjx+wUqwHybwkycEMDWz5fGXfIOLnUOuWbbaxyvfKuQPCgn04o3PIun3yn3hbsA/OHCbSHNq77yDt+e2/077Ja4nufDfRrq1El90txPoMW6zp1LfTi/d9ipoOvEwL5+6iuU0H1V6KwXpydnfz64jpfsi+mmQfcq6nrGM9ta3E+frZPc7btdGQeJL1xEUe75BfO7xeS5Md4mHSQx/OuUpm2Wp6PFs+79J8pcq6F1x1zpnP4nBVyIP2qLd7+0Ln6kZxnGqZv8vDOl/ZbQX2+VH7MY7VsR/Pa+A+/zIzINa2dhmu65R7jmRuTh15Ud7r4Xc8JiUdm+sHx8Iw0UUdfuLscR/KH7HvBm586uNZd+vYs781/2Mprg4W1bs2nO/+HQjKuPcdx8dGWleHQ6wtYrTkXG39qn3au3HPe51Lj7zYZZQibaxa98o5ly2hc4dGxB6ZDD08cS4t0Xrtc4y2YO+bmUfPHTiJ9s4skPN7Di2gQ8/+iuiC9bYbRIv17ru66bAjT6Zj5u2lFw8eI8U+CNM3fp6GWlOUfYhM0JZzvileQ/gJJ05E3LJI5KtJZoC2tJknRsPrDVNKv06PEX1ersQnKU7DqYz9ajOYTNKg+fqf972b181QajjuOEG5iJvn80TflGWL15y2Jvow8TFY8xM969QFCI7DVTHET/ZC9S50rkQdH+4IUKcYffI656va+MgQdV33SWUlGsdq+bNUGT7XYHwd9Zw7po6lkJtD/QjlDckiIurywBidK+sq9s/uqQd0PbzOkVpQ1PXwOx6TUo/N9YNjzDe2gozTOmHtBdZKz/r4/TYY47fmeyxedTCvk04solmqd228fgfl3PvO42MXhB/xc1rVVD68NEdke55f6yFgGdTiXhHyfVksSR1dW2gb1318hIbsh4f/MdqCzVby/KY9MrGbY+bw4+lgm7Csj1uaI9ZHvOFCOnrFOnr19e+jA0LoWez9yV5w6SsyfoTsx8xaJOzTMSwS8ep4XZc+QAPl+7Fvojbx/OWVlEVzXaF3ueQgzTjqYMKioU+Qn2iLm+ebanu2ys1jkPPqAhQDW1sePwRfCp4rUUftgyxUJ15uP+XHaWTLAGXdl8axmmX4XQN+7Rtq87dcHagfobyp9Sup+IEKkWkT54HGnK+p/ueomOvhczwmFTk2xcTD4qfpg/s+FD/YLQNrnMecD6/6+NVdYpwXv2PxrIN5nXRiETWo1bVhyrn3XccXW3KumioRP83xOb+2H5vF+dwl8ljFqtKSd/iv8xyjLdjshz527osysZvjqD/7KNH+PXTwrvfR/uPPo/1zjqHdP+iiww4/ig4/IUYvPfBZenW79TNvkv/3w7zgrh9hyXQ5PhLkt5xLQJygbw60OizPqsGvPvbHzgyJYmtMktYMbJGWGL8BbbF9sG6myWmQeFwDcd4eENPfFHYU/4D931KKpCrnyH08JhU4Nn4Fbh2iYLeQsNQ+vyUrZpI45Rh58oesrHjf+gT4bXhu61WHANT82pSKx/FJYdXGikkwf7IvfteGy9uyjcbFwXUpNY5dliJ6+I7A5dmCbdM0l+ad/SE6fPdv6OB/raAXH3+Adv18Pe26/d20/7E7aF7m3+n5295Ne35jPUulVT5nr5wui9gScSsaN7i4ET4/5OEDVOtlX/UU6geSk+/Gw3coGb/ReK3iCzZR8IttfvgHZzz5+amqJh2YHzvlE1vm5ifouQqIvGmG19G6nJvG+Ipt+mT9roEi9skHKCN+uVuKf9WwXCH8Lt+m/a+CUs6RJz7HY1LysfH1Ni1G5W5yv6mJa3Ujz5v3Idcl50Of9QpttqoaX9eT43N11KdA3d04tvWsQwBqeW2YUu99r+MTwnpd1xC1OfTAcnP02Ovm+R0X0Jyce0X6sXuorYfIlhY+nqEe6jHdaXmO0RBsZSdz2+u5R9HcU5bT/te9h+Yu/yc64qx2mrfwDDqu5dN04JxP0pxTzqNjLrqRjn7NOXTMYS9mty0L8TqsXBH8VGqSvjgvi9xaT7z3Wetxkr8I7QPN5ls/FPYTqddExy/HRXIJPaxfJZv4go2V2dwt+4OV+xxh28eD5BoaEBcxzut8+GE617ZQ8tU76LkKCN+45w6J1zT3D7aVzn3YshKapE/NcF14XQP71dhyf+V3Txmv7iJdIFTsRmGqWa+sltVv/5B8z1Gx+B2PSanHFiP53NOiw7Dbw7xOnD5MdJmrUL8PfbK1gj5ukdq2DGSbDHrWx++34cJj21I+Nkqqfm3cv4PS7n3/czxDmdSwfY7lb3/CcKvk/R37aI7vvcL3iDhBju94fHzij+NBnOcYxWuT5JZPr2CPxczM5P83c+j+7pmDT9w3s2vs72f2bBuZeXHyhpl9t79j5pWp787s/NqpM8/+x1/O7Nv6nZlXN3145rmvHT/z7/8ktq0qYzNd1CX+D6rFWBfNdDlOMJ/z1pmBjJqNPDU4nszATGvrwExxRYh6Fb1Npal3Hap9bYo8Pr6OMvpd+O5/28I+e2WvFcjp4Ztp74IYvbr7Cdr3+3vpwB9+RAsOJ3ph159k++wFb/yYbLM98/JT9NKzv6MHnziGmi/pVXupEvwaUtQXd1AU/Mrl+NhYKcbJ3aMx29RsFiLeVL7J1pqXVeuLsKZ8P4LXijDUoZoUeXzKBz1Tlw5z+ckJrzq1aT0deOF38oMFwx8jD5HVRpth58cRc/bSqzMLqOmYM+jcS/6xepH6hJBcIF6PJuSHy/CdvOij/HX8CphzfllsP0/nzJrzPtuOZzaBaxMUDBEGAAARIbeVCAAAgFACwQYAgIgAwQYAgIgAwQYAgIgAwQYAgIgAwQYAgIgAwQYAgIgAwQYAgIhQnmBPD1Br64AR6apOhKUeAISZKP5O8Nt2kF+w+WR5xYKo1Un0LL+VBvwKNutVyTrm1KOEeBh+dSu1npU8vmJwnIsqxgWp5PE56lyB61cMFTuOaRpoNY8hm1p9fxA1xnWeZb0qeR39MMuoRXle5JTL10to1d2VrU9hC7ulnzIyEIpOg5SM9dDERE9tgsXklD9BPX4FV7NeZj04XHOxF8GvbqXWuZbXwITLzfRTizwfhcNahoZqXb+aEaOeCVV/+/xb8xO+P4haMu4cnkyc5MRUpvbnrW6/i3Y5ZuOovqmmR8Vcitovrmx9SnOJeD3FOM9+uuaxgiuFWV68lyZ1nqyXeLp1irzJXhnntuIWCA89NDllDf/kOO6s5TY90KryROI6+dXtumuz59JrX2q7AWOgUxkMTu/Pbznj2J9IupxKkqf8nHNgZebeJ4598HHX6PrllCtw1E/l6fjG+Y5B4oxO2D1e5eNgvOrL+OUrPK9N2SRoqa1MSRrk2N3qHFv3aTd1q7cEeW7sabG6Xs/aOHde4Kizfd4r9Hsqmxi1czx0rdiZKaJUO8XM43DUx3nvZ5fra8XnJ/e6FRZsdSL0wXldfOvpOkV96ok/kxHPmk7nyS4Zd/ny4Li8XkrYg1QKi0OtbiGskY1ZK6TSFsj0wFoaammmuKsemf40tfHVFye+szdhD9U0llDiLnHVbfXJKt9nX4w4B1Md6lh5MNO1rnPrubzQOaogXuV7noM894m9D7baa3X9BI5yfa6BHIhAnz+/Y+AfmBwux8oXaTBZ3ePwv2f88hV5789S4UD8Q9TGv1GzLJPJNDVvFGXyPdLWSaSn3fezD7GeCfvczowlqHcdl1OF31OJxJYmaJLfKgQ8mHUi+/QS+Nw3saWUUMbf9OgwJbpIjTSToSlS96hBaS4RtchmeiulSV0sTuJETWoLtFzc5fPrBZcn8isfvzkP4iLrB0d8OEUZj3rExCO2hceI44sgz4f1cEsOBnAd+O2LZ8xjjTfnCq/X8lqeI6/yvc5Bvvuk2nX1un6cb5ab7xpo/I5BvgLX6Hxr/Opb6DhKuT8DYI+e3jFinRu3cLekqJ1POt8j5rRcGABpgarz3jZElN7qL7T5zoF5zYspvxD85ibLmKatadewZX73jXzQpWmrOJDMVII61jRTmhWb108ste5Rg9JcIl6Ik1BQ2KOMeXwFfVLidVCu20Ej8gJ5vZVUGfFKJt1EdcPnHNTrPinq+hUg8vd6le9PfiOZGTNG468ALNamj7yab4wlo8R3XDy8E86xNyU+9414ZtBUZpxG0sKiZl94Wpw38ftNeAxpVhnBlmZ9L8k3lFogy8s6+PlVwlOcKmXl++E6blkPHptN3Fzd0kHFP4wM9beIi7jDWsfGXTe/fVmzxSP9tMZHkFrjdQ6oyPuk2tfPTZBr4Hevy49OPsdWrePwq2+h4/C6NuXeJyyoDrcLW7i5r/R5Mc6TrLOattFWuSBnebV/TwFJdiSot603V2z97hsBW/+0di2l2ect/vHsyAhRs8fJq5CFLS68eOKlzcFGtSO9XMRBOn3o7KwX5bEPSw3i2ileJXKetrEe6lM+teo1e3Ied5z9gvyhRVwcUTlV3zgNpzZSz2K1CWPWbcMzKtNnXyXjPEf2h9lykZYOv87xdcljmXmdg1gR90lNrp+bINfA7xgsX6qZL/WrqsfhV98Cx+F5bdSyUpGWYZvap0hsDW8s4k1GnKeN7GdW2+f8pvk8JrJa4Fhek99TQNhQEv9yjWO/+0bA10P8OFPqacSzQ8La1g8nE4w40yhwS4eRDpqpxU07G+Hzt7Y56/sGoA5UzocNQse40XSpiRswQKxLYNxqqteWpv5iLEYAqgAsbAAAiAiwsAEAICI0vfDCC7CwAQAgAsAlAgCQ3HXXXXTJJZeoORBGmnbt2gXBBgDQz372MynYu3fvVjkgbMCHDQAAEcEh2EceeaRMAAAAPQgfORb2U089RT/96U/VHACgkYEehIscH7a+OH/5l38p/1aCQzOH6Gs//hrd8utb6IX5L9DCkxfSq3tfpRd+/wKdtuA0+vSKT1PHGzvU2pVltpZ94MABGUCmFLgjzdy5c9VcNJicnKRf/XKznD762IX0pvNbqGnmoJwPyiFqok2jt0urcc5hc+jd73kPvfa1r1VLK8N969fTb265hRa8+CKdtFBc73376PcvvEALTjuN3v5P/0Rv7Cj9Xjt48CDt2bNHzQVjwYIFdNhhh6m5/Hj5sEvVgzlz5thBjoLC9eRjnA0cccQR8ndmsnfvXjVVOmV/dHzooYfkxcmBe4eJP/sO7qP+X/bTD17+Aa28ZCX99Wl/TfPFPz6Ynft30je2fIN2/HQH/ePSf6SeZI+1bUAatWy+8I8//jgde9xxsiyJKtfGPW/w/PPP0+mnn07z589XOYV58okn6MEHfyGOuYkOFzfjKae+ng7xQ0Mtl2VxmWKCj1H+5VzrPzk9Z+4c+sPvdtC+V1+V67S0ttKJJ57IWxbk1uFh+va3v03nNJ9Db1z+Zmp7zxXe598HrsOBQwfoc5/6pBQx5m8+8Dd0biIhpwtR6HofFML8y3/5F3qZW1pceimd9r730mFHHUnimU37/vhHeuob36DpQ+KRIR4Sl37yk9a2RfKrX/1K1n3evHkqJz/79++nZ599lt761reqnPxU8qPjf/7nf9KZZ55JiYDn9ze/+Q09+uij9N73vlflBIeNj1/+8pdqTqCuSRAOiWvy3HPP0cUXX6xyiuell16yz5l+QL3yyit01FFHybrxQ+gF8dDmeb7vGf7L8wvFQ70YHIKt/VVcWFC4fntf3SsrwDe09WPNput/cD194/f/P2pd2UqtC1ul2Lzn+PfQ71/6PaWb0nKb7/zuO/TkpifpO+/9DrWe0ar2XJhGLfvll1+mJ4SALj37bKt8o1xG/uV5OafmDdLpNJ166qnyhgnKXT/4Ad17z730xJNP0NtXXEipzo/R0fOPUEsFXKTx16qTVbbQeHG8TfTiK6/S0FcH6A+//x2vSW2XtdHb3v52Oe3HxAMP0ObNmymzLUOvX3wmvf2d76I5QgXnHsaiZd+6+RHW9B0jt9ExxxxFf9jxOB0pjpvFrBjBLnS9f/DP/0xPbNhA73zbW+nEi94qanaQZg6I7fZZteRzsvNb36JRId7v+8536PSW4oODPiDORVtbm5oLxn//93/T2wucY41bsEvRA80zzzwjz/Gr4uF8xhlnqFxv2O3CDyEWNRb5YuFtX3zpZXmP5VwbXsE1bcL599x9N61YsULlFMfQ0BBt2bKFDj/8cPkwTSaTdMopp9Ajjzwi7rdjZD4LNp8Pfnjxufze974n35T43PAb3qc//Wm1t8LkmAzF+qya1EmSSRy8/Vek3z3/O/p/6e/QoXMP0cJ5C+nhlx+m3z7zW3rDMW+gBXMW0EO7H6Kpl6doyfFL6IVlL9BV371K7TUYjVb2fvG2+Ogzh2j6afHE3nPILs+8Qbke8q9r3p2KhS0HvvH27dsvrEYWzCZ6eteLtFMk/vv082Ka05+sv089/wI9Jaaf+tML9MRzL9Afnt3Nuin2c0juh9MhVsEC8IPph+IHdfTRR9Opp51G8SXNFFu6jE6PLRFpacF0Rlyks+L07DNP0c6nnqR54gcU1EVgku96P/+739FD4g3gXHFaj33T6+jkD/4tHbXsDfTKIw/Tnl0P0VEXr6D5b3sbHblkCS0TYjh8VXH3mgmLYFB43VKO1aRUH/bJJ59MU1NTdPzxx+d148j7QNxPW7duLSjs+ThM3FzmvW8nfc1c6TCVeLoc7r//fvGb2CcNID7m3/72t/K4+ffCDyB+w+E3Wra0OZ+NJV5Pu+J4/WJw1JbVn3daDPIEqQNv4iTm5V+R7p++j3YdvYv2H7mffvrkT+nXT/6atvx+i3w1ffGVF+k3T/xG5m1+ejM1ndJEz819jp7c/aTac2Earez7tu6j7/1iL/3g4X1iffF6zWV6JFknj3ydGP03KHwD8g/rdUI02Tc/VwjYGacupDNF0n9leu3x4u/xdJZMC+XfmMg74zULxXb8Cmrth5M0WwOwrPkcNWVZq3v3HTDS/rzpVX7KVQA+X37X+9H77qNjhBAfffg+en7HvfTc9jSd8K5OOnDhMjpm1Yfo5Ja30WOTd9NLD/2GThHbHSZ+xLufDH6vmezdu08+NAvB6/C65VCKHpiwu+vYY4+V7js/MpmMdM8xxd6TNnwtXNdHT3slLdR6+umnn5bCaab/+q//UjvPDz8UL7jgAurt7aVPfOIT9PrXv16KsV963eteR1eJB/b//J//k973vvcV9QBmch4v/HGhmA8M8sbVJ8yVMs9laO/CvbT3j3vpi6d8kW5ecjN9o/UbdNKCk2jFGStoKDEk8z64/4N0aN8hevXIV+m3TwR/4jRa2fsPzNCihYfR4pPm0tHzRVnGjcdJ14cxpxk9z2nrHw/QV+9+mdZveoXSfxDv7QHQgs2JLezDhIV9+Nw5dpon0lxO4o4SWs5bSAt6v7CgWFhf3XeQDhwU23PS+wko2BreLZ/f446ab6QFrnlnOmbB4dbGZWKeP/f1flaI2nGv7qHDFuylI/dlaP/tHbTjJ9+jcz90LZ12QRv98Eu9dPT9n6fD5u6gJnHcR4pX4SeKtKyYn//851JE9+wR99beV+WHZ34Aania83gZr8Pr8jblUKwemCxbtkz6ps855xz64x//qHKzsOXJLpCHH36Y/uzP/kzlFo+8L9T9L68JTxu/C5lUvjvxNosWLaI3/fmfO1JQa5+3N99ieP6xxx6TDymdduzYIdPvxJsYu5t4HVlXVYdicKxdSrtLu3D+yyfASDNHiZvpGF7JWrcQh44UP+TDheUVkEYs+9X9h2iPEHmhe3YdvBLjN3/EPKJThPAfcUQT/f5PwSxQFgPtyjgg0r4DB2n6iecd6VH++6T4q9L2p56nx57aRY//cTc9vlO8cYhtDhyy9mG9Chcn2AxvwWUHTfv5RFUAfe68rvcCIcLHcjFs0Iq/u16aEflyM8ncw2dowWtn6PBTrfn5Yv0jRCoWFuCXXnrZTi+/vEe6G1icrbRH5pnr8DalUooemLBvmV0C7A7ghzM/TDQ8z4LNri4WOP5bDvLaqOshxdm4TloYZeJ8j8TLtJuEUynwftiH/dd//deeiS3qVatWOcotlpyaFe3DFsk+OeKvPlmcWs5soXniHx1H9P7p99M7fv4OescP3kF/fPmPdOf0nfSOn4h5kfelvV+S+zriqCPodSe+Tk4HoRHLtgRbCJ5LsBnzr3tazzO8LYv+q8JiD4rDwmbLWYjhicfOF2mBSvPpBDV/AqdjFtDxMs230tHz5TZ6H6VY2BKxzZ5X97vSAY88K7F1XwnyXe+4eCU+JETppT8RPfPsXDrh/d+hN7T+NW27bQ09/evv0Tv+5wAtbPsfNCO071Wxn2Pmi3MlXo2LhQV59+4X6MUXXxTpJfn3hRecyVzG6+bzHweh3HbYb3rTm2h6eprOOuss+Vezfft2aXnv3LmTYrHyo4zLa6Ouhy3Sal4mdd28EmO6STiJBTI/KHo/5j71NNdnr3ir4rRnr3g7etVya71FvLl8c+NGaYSIFR3Jr9mtQ7BL8lmpCnHF9EnTlVx5+iVWEyp+yHNJXAduUcXHw9P8tsp/ucZ7iV7zmtfQucefK2YC0oBls8julRa2sOJUmYzXX/e0TrytFGwh/kExBZst4/0H+MEhhFLceFayfMosnln/sjOxtVuuYPO5Xujh+vBzjVTKJSJOnO/1fsO73iWv90vCwm46fiGdFDuXHrmll/bf+b/pjwN/Q89t/h4deM0F9Pxj8nLL6338uYWvN3+guvPOO+nHP/6xbLbG54xFeNeu3TLxtFuw3ct5G96W98H74n0GpSQ9cKE/PnKLCBZmtqp5vyeddJJ8y+K6ldIyxA1fB3ldzL/qenGS66hpdzKFWidri2DwPvRf9zQnvs+1G4t91gcOiHTQ6keh2567E791eOEQbKZYn5Xj5uWkD1pMH3HwcPqb0/6G5h0rrE1+0LOACY346VM/pUeef8QyNzhvv/X6dXX8alGhnCr50ohlmy4RDZev/3olhm8OnViw94r9FCfY2dYd2iXyxHMvOtOzL9KTavrJ516ipzj96SX6I6fnXxLbWEKt98P7LBau/779ovyAia36SpDves8Ii/m1V1xBR8+bR7+7/VnatGI5PbVxgF58lmjLNw/QD97yN/Tgir+luUL7+Hq/4dRTZXvtQvzhD38gbuPLVjL/0LklxcTEhGze9+Mf308/+tGP6N5776F77rEST3MeL+N1uLMRb8Pb8j54X7zPYijHh6154xvfaLs9WLDZl8sPLfZr80e4cjGvi7xO6rqY+Zzc6+ZLQeH7kTG3c08zfK/MnXuYFGjPJJab8344VIJvJk7FwpXSJ8g8UWx1DLxpgFqPaqUFZwoTk61KIVLv/9H76UsPf8kSM6FpR559JF3RdAWlXpOS+yuGRiv75b2H6IU97Jv1trAZc5oFkn2HnPiHy4mF+oVXDsp9BWVGiDzvSwsuW9hHHj7PmY6YRwuOmCum58q/88VfnY6YN1eK50FRb70ffbMXA2/yirLq+a8zHchJbPlXCj6vftd7+b/9Gx0rhO0sId57pvfQo/cLsb7dei6/Is79G0U6Tvy2moSwv+H22+moSy+1dpoHtkR53/yb5Pa8/HHsrrvuoP/6r9vo+98fpuHh79B3vvMt+va3/0MmnuY8Xsbr/OAHo3Ib3pb3wfsqxkVSqh644dYR3PKCm7+xG4TrwNPcvn7p0qVqrfKQ10KInnltdL7+65e8lheLez/mNP/jZoemILOA2yLtEmtOfuR0nGGfFb/CBH2qchdMtrjkSRIFmzeyrviemT308a0fp7ETxujALvFD2vMKNR1oosNPPpwWHlhIa15dQxfsuaDoi9dIZX/q/z1BTz5/gHbu3ifE7gCdeOQMvfbk4+QyqzQDmSH+J9RNi6Ipjk89+wI9t0fUec5cOkW8BZx2wjz6yvtPU0u9uf222+mO0VE5fcKJJ9OF7avo5RdfkvNOsuXoIvkPl88dde76r2F65cUXZf7lqcvpXQWEi3s4/vpXv5bTy97453TZqhQdYdzQ2dI0uTn7xHX63Kd76MgFlvhwD0/uyFRMx5kg13tGCOzW7m464c476Xm2asX8frHuKUIwDx13HO1ds4b2vPWtga73QfHK/NLLL9GC+exLs+DelrlHlx+uGbfW0OzZu4eOPuoYT1Hw6jhTrB74wRY2l8luEW4Vwp2/+J5gH3e58LXhffldF3OaMaeZ8fFxedwm7Lc/N4Db6grxAO7o6KAPfOADect8SRyvfCPTiZcb9RX/Uz9b8X9xLNzrk5sIuik7lgifrIPCWvK6kRnz77Y/baNbn7qVtu/dTofPHE5vEf86Yh2ycf2DDz5Ykmg2StlXbvwjXd56Kr3KvefEBZ07RyTxipUXn183N7U7dIjr10S8i189tovWvMsSfz9u+/73afS//lvNVYaUuNkvbcs/MLAp2HPnHU7nJN5I+/ayTyk4846YTw9O/tjuil+qYAe93n/ato329/bSE6ecQjNCrOktb6E3ifM3d2ws8PVmH+chcZ0WqIcM86//+q+yV10xsOhwm1/NHmE0WFYcv/Y5qWQsETd8vn/yk5/I5nJ8jliQuP1yJSx4Kdjiry2EKjHuaffbHef98Ic/9BRs80Hnh5dg68RYf5vo5Vdetj9syvtH15Xn+a+9rgW3T/dyF5UdS+QIcfPzjSUrIgrUfxm/v4w5zXB70aJFs4HKvvI/nqHXLzpJ9nDkG+6Iw2boyPn+H9S4cwvfxdbFtSb0hZYfAA/N4crQUYfPoZ3PPUdf+9DJaqk33//e9+i//zNYZ4KgXPH+91PysvxdrU3B5h+Z/qEVC18fTUmCXePrvX//Pjr88CMc8V7++Z//mX79a+tcMNwphd0dJuxq4B52GrZg/9f/+l9qjoWT3RH7ZZM7N5WMJWLC9+vatWvpn/7pn+gXv/iFdItw923ukt3X1ycFtxz09vqauBPDf9mVx+4YdjXxeWI4Ls6DP3+Q2lyGA/v/gwh2KpWSTfU++MEP5pTHievE9+wrolyeNlujmA9+vY2Gvz14CXbZPmxdMZ00etrvL19E/fGJp0uB92Umhp+Wetr8u2nTJnu+WmUzetrvb6llH7eA/cKH05EiHbXgCGF5iWkh2F5pwfx54q9eZ57lQz78MJp/xDz7w8dRC+bTUbyOWP9Yse9C8E3H9a1kKlZ8+Rzqm73YVC5ctpk0etrvLx9nSfda0xzZguK+++6z05IlS2RbXp3eIix3djGYifPMdXgbcx+/5IiHRv3zUYoeeMHWKn9D4Y+O7BZjNwufixNOOEG6IyoBn28zmfA8n39u6sgxPTjcAXdk4U4tm3/9Gzr77KV5t8+HV3gF9744ed2TtsWtlpvr+1G2D5s/ZPDJNwtlzILNv3zi+OLxE07fwE3i9eyRhx8q2sp1l80X4Ytf/CK9613vku6Gd7zjHTKPv4z/3//7f+md73ynfBpWomy20PjhwBYO+5qam5vlzchf8fmJzzeHOLfylZSf1u95z3vk8lLLXnfnS3TCiSfRy3utH/4Rc4WF7ddkTVxRvpH4n5wW688VIv3q/v30yt4DQguEdaWuyfx5c+jF3X+iNZfm77hw63eHaeT229WcRe//d7X80WncAqzn/993vkP33H2PnP7Tn/5Ey4SFxfzNBz9A7X/1V3LaD9PC1rz48kuy2zPv3yxTz8t0aEY2ZdOdNU5fvNjuvVaKhV3r+/yVV/aI32Pw0KhBSKd/K+5T/ui3V+7bTTV82Hz8/GbA54M/gF599dUy///8n/8jf5ucf+2119Jxx+V3yeWDf298zt2ix0nDljV34mHLlXWAvxH8VFjWr33Na+R9wdfIvk5iu5/97Ofit1vYwn4fd4oRD0bTwtaJ68OJ71AuXwo0u6NUvl6P0X81Dz38ML2hGj5sfSO7TxbjnuYbmCvOYma1xxQHMXcuvfzqPnr9a06RIlsM7rK5BcQNN9wgfXYcLYvTk08+Kfv5s5D/wz/8g1yvEmXfcsst1N7eLsvkpza/hrJos2BzmStXrpTdcvlm4huC68K9oEote/C+PXTc8Qtp7wHLDzefBfvI3NdahjXMEi7+K25CMcFN+V5+ZT/RYfPEOWCLky97Ex3WNEN7XtxN3Styf8AmLLq3fe/7as5izaf/SQrwDhUrgo/zNNdrHNf1B3feST+69145v/Ppp+n0NyyW03/b+SEZkzofbsHm68fbBWHTXZsos22bPBfbpjN03vI3y/xyBLuU+/zll1+R/m++3rHFrw90vbnNLrsvtOuCxYYtZK6D48GkEuOuDyfugMHR+rjd8+OPP0annfZ6efzzzUiLikr6sPkDKZ9j9lVzaxAODfu1r31NvgUw/NGRQ6myQcOv/lwut9X+8z//c/s4gsLuKtN37U78UOBj4pghbFVffPFF9PMHH6QTjj9BvoHwQ4Xrox+ufM4eeniKznvzclWCP2wAXn755fShD33ILo/h+0Qnvj58LmyxFn/drhA9rWHt0AaGSc67Il+YYi+OLMxVoFkBnuaTxpV+5plnaYuwMn73+99LH90r4iKdeNwxRQumxiybrV2+wTnGLB8Df+BpbW2VNyifuFfFD6ZSZfNT+lvf+haNCzH6i7/4C1kWW9w6/CX76bg5E590juTFMXfLKfvYI+eK45hDxxzVRMcdzWkOHXfUYbTQlTjvuKOsZdbfOXTUfKK5TQfp2GOPENsdRseKfRwr8vnv/PliWuy7EHwjsxCZiW/Eh7ZsoZHbbpdpauoRe12++dlXyG1/+bof5CZ9IrHlq7fn9YqFrzdv99vf/JbG7xiT6cknnpR57qTvQN5m3lzvh1sxmPeaRuYpeNq8z9NbHqLM9KOiLjP0yr5X6bWnnBT4evN+nn32T1JoOHGzuO+Ih+ZnPvMZma655hppmV533XXSD8yJpzlxPi/nxDHEeVtrP1b0uEOHgrdNL1YP+J64/vrr5RvtsHjYskXLIsmirMWa4bdNjtPNvR/5HtmwYQPdeuut0q/N904xOK+IN3w+2bg6+uij6O57fyTE+nj5psPXin+bbGRx+3BuzTL96GPigcsNMgvD95l+YGr0PcF/zWn7oSJzLPQ6nHhfXE9O7n1qyvZha7gSXKiJOc+VYIuDT8rrXvs6eufFFwuLQ1iN4sKdJoStHMyy+UD5BmGfNVvA/JetX75Y/MGjUmXzTfaRj3yEXhLHxNYU35DsAuFXdV0XfRF4Xf6xlFP2cQvY5yUsvSOEyB4xhw4X+jPvMHZ15KZ5h80IgZqhw0ViC/qgsLLnH8m+7TlyWzNxDGHedyE4aNMBcQ7NxOda5isB5g9lWqTNxD8KW6TFfaC3LymWiLqRn965U/64OPF9VSyJN75RTRWHea9p/O7zU099DV3WlqT9QiBPEdZcsfcadyxhMeHE8D32tre9nUZG7qDx8buEgcAdZ34sLO8HZOJpzuNlvA6vqz9c8T44PvNTT+0Uc876+1GsHvC1GRgYkA8HFmIuU//lh4ibnp4eKc4s6nzOtom3IbayP/vZz8rzGJQgdxEbbHPFQ/t3Tz5Fy8SbMLuGuAzWBi6XO/ew4cXuzaf++CS9LeCgD/z79sK8J3jaTqIejnmV+DzwOeAH6vbtj9Epp3g3Asj5pbLPSr8GBUIUZsKFm/A8HxQLJneXZffBCSeeQL8Qr0jc2eINb8j10wTGo6zOzk7pc2PhZGuX3SB8Et71rktlfqXKPk5Y8fzFn5v0sP+N/XNsdTOXXXaZtPb5de8Nb3iDFKbTTjutrLKPmX8Y7dd9QMQdyp1fnn/p1Zy0i9PLr9Ju8fcF8feVfeLGnyMsaHmunOeL4X3yvgvBVtl+FmUj8Q2/n7vZimlOLMxusebEw6Lpddg1wNu+46KLZNS/evF7IahF4XGvmbjvc/4dnXjCifSzX/6CjjlyftHXm11p3Jrjd797QiZ2q/C+4/El4q2N/fGn0+mn89/F4u8bZLKmrWU8HYvF5Ta8rd4Pzx9xRPDu+sXoAX8r4q7vLLr/9m//Jstil9nb3vY2z+7n/ABZvXq1/H2ysbN+/Xr5YZIFnt0zQTko7id+w+XfI2/H9eWkpzl/y8NTNJWZpotXrJAPMX64cD3ZwGB3CF+734u33x//5Cd0ifodB4Hb5geC7xeRzLuG7xlOfJ7YM8CtfvghvWs3B8U6Rq3lxCHYXHkWtUrDJ4d/3GyJHiteRR7dsYOOXrBA3FTlxxBws3jxYukrfvOb3yxPBgsliymfjL+84IKKlR2Px+mv/uqv7KY/fGPrTgAs1OwHY1cIvwLzzXDWkiVllc1hVZvmzNDLe7kHnziXB5po74E5/ungHNpz8DC5Hndlf+XVgyKJbV2Jv2nxvgvBbiXTuubEYswirDkg1N8t1pxMC5vvA9729+JcFPNqXinYkmLYCnSLbrmY9/mCIxfQ9I7HxZvU0SVdb27Nc9FFK8TD/1KZWPD5nrvwwnfQSSedINKJ8u+JJx7vSOYyXpe34W31fnifQT9kFqsHLJB8jfn3x1YrX3sWRbMduBuOYsfuEd5udHSUPvzhD8tt+EN9UHhb/s2ZicO1Ll++XOrA+eefT29tbaGO9jbZnJDha6XvSba+HxFW/k8eeIDeXeAjuBt+WPA54s5A7LfnxG3l+cHFrij2RfN3DL7T3GKt4fuF63P/j++XurF0if9H6cM+/elPf05NS/jpo1+jgiA/iojC9NNCV8Q9zyb/rt0v0L6DM3TywuPEq0fwMvwIU9nnnXeeo1xOTKXK3r9nN+3+09PUtOc5mrfv+Yqlo2k3veG4Q3T0kfnbwp4tXiN/+Ytf0h/Fg4kfQJz+/M3LZRQ2HuZLjs940kny5mOB1omP/4k/PEF/fPJJaVFzTzvuvceWBH/w+7MCPd2eFW9k/OHK5I1/9ka57/liP/wx7XWvO01aZm4eE6+W2p3wvLDgXiMe3CwG/HH4vPPPo7NiMWnJBqGYe+15YWG/vO8AvU6IQyXuNYatRC6DrVU2BPijIYu6/rClE+cdLt7g5s07XP742erlhwh/UykEN3fj68nnSFOMHrBY8bXia8stQDgSH/vbTd+1G64zf2e67bbb5FspCxyfQ7a++VhLhffLDybz+uikYcuWH0o7n31OPMCfp5UXB7esNV//+tfl+eKHFX9c5XbynPg4OPHHVjYaOXYK14nL1391XXj7ByYeoNMXny7Xy0dOsz6GDyIo/GRxP7HNk8Lw02OfsL6ef/ElWnrWGbRIPeXKpZHK5ovKT2wtQJWA68vN8tjqDCJcHFCo79rrpKXAYnDeW/6CFhwxX7o52Fpmf/ZB8ZeP24Q/Cj7+mBV97E+7nqeTTzxJCuC7O95D//iJT8j8fHCX+IkHJtQc0Qc/9LdqKj/3/PBuaekx20X5fyaOk49559M7KdnWVtSAr8Vc7+fEA7o5flZF7jXtZmEB5ABPH//4xwM3gWM3w+DgoLCqL5JvnnzOWSz8YNFxN+tjguoBP0T//u//ns4++2zZU48HtmWXRxA4aBU39eNt+T7nFiX8YCoVPk4WS/Oaua8XuzNeeOkVOvaoI4VFXto3Db4+7I7RmGXoaW4EwR84uU76/PMyvl/YwmcfPvvO+S22EGW3wwaNBf8oGf4h8EcSsx22H3xjaquNf8j8ms6wRZVPQEy4aZ+OP8EPC/ePzwvpfhE/CP5R/fDuH1Ly0iTNOWyOFAX+EQXZR73h+rNgc+JzxxYzCy8fGx8Xnw/+y/C55GPiv3x9eBu2jvl88zac+Nz54SXYxeoB15ctdX6oFDsiOLtQ2J/NQh30zScK8L2vr5Ebvk78OwhK2e2wAQCzA7dgM9CDcJEj2ACAxsRLsEG4CPY+CgAAoO5AsAEAICI0/eAHP4BLBAAAIgB82AAAEDK4DbsXsLABAKDOcBxzExZsjiToRgq2Vxg/AAAA1YcDmAUVbHx0BACAiADBBgCAiADBBgCAiAAfNgCgIfng33oPNfet//sfaqo2NI4Pe8cGSqU20A41CwAA9eC++++ndev+N+3fn40Pz8G31v3vf5Gj31eKXMFmERTKvqTvPpVhcV+fyMsnjsWIpy7DSK7iAACg6rA1baZSmXp4in79m99Q/0C/FG0W63/5l3+VsbE3/+pXaq3y8baw33QFXbH1a7RBq68Q2K9tfRPlDTW/eDUND68mazzsALzpGtq0bZuMV7xt0zW09WMQbQBA9WFXiHaH6Gk/90hQuro+Rhdc0Eq/+c1v6V/7/1VY2/9C6S1b5CAMH/n7v1drlY+PS+Qsemcb0di9lmLf9+830FI1GjizY0PKsI5TlrBrC1v93cAWeVDrmcWeRftrykJ3WOB9lN38Puqz88V+f66ymfv6RJ6qCwAA1BCOQf7x7m5qaflL+u1v0/TQww8JAX8rdX3so4FjvgfBd0+nr/5HWnrDv9N90rq+hj56oVogWLx62LKMOX19Kd3w7y5F/vUN9Og79fIr6LtaiPOx+Axa+utH6XEW5ZXiAfF1a/tN12ylj0nF30EbUh8jUvmc1v6FtakUeLlomFYHNvEBAI2KlyukXCubB5V46cWX1BzRiy/uFnmVHWg6j/SvoHde8V36GIvnP7pcHaYF/LHvEm19zCnIbxICv0JNn35WfleKmx2P0VZj+8UXttGbvvtD8eC4l8bI2K9GPBxWrnyU/nHbWlFjAAAoDVO8i0X7rLUbpLW1RVra2qddKfLa6is+eo0Q2yvonaYSslivHKO2TcrS3cTrVAAp1GfR6Wo2MELcv25b4QAAUFt4+K9/+dd+W6zZDfIPH/+47dMeuPFGtWb55HeusG/Zy3J9UxtdqEzuHfeO0a+tyTJQbhC25KVr5AbSXha5/yveSSsWX0htlM03OX31MH2dPkYpOLABAAEwPzaW6wphH/Xy5X9uizXPa5/2W9/6VrpAWNuVonhvuBDxf1x6A61ULpE1jy4tzcJmV4Z2qyz5Gp0lLPa18smwgtaqViO8bOUNS+nrcsFiWr0um8/J/Oi4Yu3XaekNKyHaAIC8mL5rM5XDJStXCoHucnxg5Ol/+Hg3tba2qpzyQU9HAACoI4jWBwAAsxAINgAARASMOAMAAHUm8IgzGNMRAADCBXzYAAAQcSpuYfOTAQAAQGEWLVqkppzUzCXiVxAAAIAs3FO8ZMGupGUMwQYAgPyULdh+GxcDLGwAAChMEMFe+yVnHBJ8dAQAgBBz8/ov05GHPScTBBsAAELM1b0fpat7rATBBgCAiADBBgCAiADBBgCAENPyluVqCoINAAChprUFgg0AAJEDgg0AABGhrh1nrr32WjUFAAgDX/jCF9RULrfddpuaAn68973vVVOFCdpxpu/qVSo3sGBvp5tWLqdtn9pFAyut6WseJDr/hs206coz1ToWxQp2vhsEAFA7Cv0eWbDPO+88NQfc/OIXv6i6YAd0iTxK2x5cTZetFJOb1tM1y26lXbtupWXXrKdN1goAAACqwGsX/6WaKsGHvemODXT+krPE1Fm05PyHKLPdygcAAFB5ntzxUzUVWLBX0sCtRJcvXEiXb1hNn2I3CFvatIoudXpEAAAAVIngFvbKAdq1a5dIA0K+1fymKwl6DQAAtSGgYG+inoU9Ln81f3x050WAZ++nm266n55Vs0VT7vYAgOJ4/BZateoWelzNNjJF+7CdVNCHzUL4uc/R51S66f46SqKXKJci1FPft49Hpu9PqQURAw8pUCvu/QwtXrw4mz5zr1oAmAKCzVb0Qlq48HLaIP6xD3uhnZbTNcs+Ra5WfSUyRd//6hY69xNa3K6gRc88o5aFhJPeTlde+XY6Sc0W4tn7b6LPfZfoCkOwr6CHxZECALx4/JZVtHg10YYdO2iHShvoLoJkZ6l7xxmr3acQ7M89TOd87n3UbC3KwtbdV++hp+XMKXTRJ66ktwvVZEH86j1Wrp1PYt1honMX3UP3pBNCLHl/vO/vUlqtmbjkItr5a72Oyrvic/Q+s2AuU+wnZQq0zksRDQ8/Q4vEHtOy+GydsjxL91s7cOUrHMek6in3n91v4opP0Mn3fpX4EGX9TnYul1vqevvuz+c4Het7nTu5QK3Px2LVgznlok9Qioaz5/6Ui+gTRTzIQHipbzvsx+mWVb1E/bfTR05XWRp2ichFH6HTeXrF9bRZLlhOn73PWp/FfsX1Vq6dT9Z27WdfT9d/+wPiQfBFulCtUQ1C1A7bsrR7TIf1ph5auPImsaQSNNM5iTR9N8dtwJb3M3ShtlI/cS5tGbZezU96+5W25fq5KxbRPfep7Z6+h545h/NZrFlspJlrr/s+fpbY6/C2CUrfW+Tr/tM76eSUtf0nLiK6R9XJ5tmHacvTi+hkTxXjY7qHFqk6feKinfRdfcx6v1yn77Lgu+pnlGut832xt3z78zpO/3Pqvf5J9PbURXQKC7PIv/Kch2n4nkXilFrrXbHoGQrZuxCIIo/fTaObz6Yz3WLt4F76zIppukpb4Pe102iv5ds+/SO321b5jg1n0/WDyi7ffD1NX8L51RXrWhFQsI2OM5qVV9ENdDvdWSEfdvP7lFAIQZB/WXSefYZ2CotSCjkntgqfVgLBVqLO/64wCXc+Y4mOEJYV2lpm4SRjXmOuc/LJwsYsklPOpXOUGJ90zrl0iq6TySkn08lq0gEfk1G+3D6tXCV6v1wnc5qXMUa51HyOsKV30jNb8+3P4zjzndMg5+Wkk6WV/93P8cOCr5vHWxEApbA8RmeoSU8e306P0LdptfZvs6W9eZoek8uENa3zV3+b6JHt1kfK5Z+l7tmg1IqAgs2dZDbQHaaFvf1Ouv3BZRSvdLu+5vcJIbmCEobosGUnxUUm9bpv+ryFmVu06FYTFrWnt9DDRZntNcTrnKpFhWmm98ltzqGH5V9LuAEoi9PPpLM3j9LdhZqCCAG+T1vSMgnLWbpJRqn9PpV332cpG5A0+pTQ0/FMunKT7DmT/ei4/HZatVm1yS4XFmDTFSKtUGGhSuG7h7S3w4FhbT778Bblj3Vx0jl0LvlsXyFk2YlzXILXTCvYVfJVp5hNfV/Mu47Je/sATD1MaT4HS4vcX75zmg/jzeb7sgUPC/cn6KJThJUf1gcTiBAXUvdnia5f8RnHR8Z7P2PMS1G/nrS3w8HydrpYuVMev3tU+bhnByX0dGRW0oDsOKPTpgq1EBGwsO78btbiY+s5xR+yhCgI63nnd1U+J25edtLb6cJF99BXVd7wM4t8LGzL/2pu//1talEhhKjp/edYkcayr245lz7h+GJpwT526U+29/E5+i6xkDqP6avsD/bY3hOzTuyalx/7it2fzzlVSz3h862+Mdz08Fx+Eqltv0pbzk15f1gFoEjYD33fZx/JujxEWk2XGL7nC+mLwnp+ZHV2+WJun336R+iqs6+nFSqvd/rsWWVhmwRvJbL9Jlq5/Bp6kM6nGzYLsX60hxZ+ZQltdvV2LK2VCCgIv4XIhidokQGqA6L1lUe4Wol0swtkF926WmVV+KMjAACA/BTRSqQKHxhBcIrsuAMAmH0EFOyVdNlqVysRROsDAICaUkRPx+xIMxar6VYduc+gWB82ACA8wIddOrXwYde1azoAIDpgTMfC1FmwOazqHXTZrsvoDhkAyofVt9KuAcvWhmADAEBhqtBKhNtea7cHu0DMdtg63UqrN9yBsR0BAKAKlNDT0RRuN/mWAQAAKIcSezqye8Tomr5wJd2ENtgAAFAzAgo2txC5nOhWwxWyeRXdvjyCQ4QBAEBECSjYHuFVz7yUVp1fwSHCAAAA5CWgYNcwvCoAAABPimiHzT5ss2lf+R1nuMkKAADMJvo+/Uk1lZ/IdZyRlQl4cAAAUC2efPJJeu1rX0u7d+9WOaWx/uYNVRXsgC4Rtq7xgREAAOpJQMFeSVfd8JDThw0AAKCmBLaw11/zIG0whwiTCVY3AABUkxJ7OhptsO2EHo4AAFBNiuvpyEODwaIGAIC6U0CweWiwa2iZ7uHIA6f31EmypweotXWAptUsAADUkp6eHjVVPwoItquH48rLqKqR+bxEuVpCjQcAACAgWqzrLdoBfdh1JNZDExM9FFOzFaNa+wUAzCrcIl1P0Q4g2BvoctuHzT0dzfka+LQdlvAUrWttoqYmTq00wJlq+UA353XTuMxqVevkWc/cL0+715fZxn5gjQPQcJjiPDAwoKbqJ9oFBNuvdYhONW4lMpmm5o0zNDMzQ5l+ot5OJaKTvTTVwfmDlBSzsZ4JuY5MYwnqXccynruexTh1x6eoT6+fSdEw71eIeGdvgsZU/lhiijJqCwBAY6HF2hTtehB+l4hJS4ralQ8j1p6ilkkloi39tCarwE6LuW2IKL3VEnb3esz0VkrTELXp9eO9NMn7jS2lhMy3rPbkoCnyAIBGwS3S9RTtaAl2EFis48OUymiLuZ9a1CJfhJBntIUtE4tzkgbldAeNSDG3hBsA0Dj4iXO9RDuygj09OkyTXR3eVq9hicv1rElv2JKe7CXtNbERwt8tndks3Bnqb0nTVjixAQA1poSejjVEiGdcuyfcVq2xLD6cosygh1zHeqgvkV2vcypRwMIWgiys8HSbLlMk/sAohJx64yovTsOpjdSDJiUAgBpj9nREeFUAQMMzy8KrAgAAqDcQbAAAiAgQbAAAiAgQbAAAiAgQbAAAiAgOweYvk+UmAACIGtxCJAo4BJubmJSbAAAAVIfQu0S4qzgAADQq4e7paJBOp+m+++6jQ4cOqZw6w3FKqh1mtRZlAAAiQ3FjOtYJtqyfe+45euqpp+j+++8vXrQhfACAWUZoBZtjeLz97W+nU089tXTRBgCAWUSoXSJz5sypvGiz5a2DPOngUm5r3Jw31+dY2XIFznaNRiO36aZue0ScJurWkascZfqMaGPk24x3Z/O99qHqaY62AwCYvYT+oyOL9gUXXECHH364FO2pqSm1pBR4dJleSoxZca8z/Wlqs1XVC+f6dmxtIZSeo9EYI+LMjHXRUBuLqM+INmJ135FxGBbjNhJlTFBPzH8f3qPoAABmI6EXbLaoH3jgAdq3b5+0tJubm9WSEuDRZYxRZ+SoNUMj/papa30bv9FojDjclOygLkrT1rt9RrThdUyr2RwZh8PISoFW+/UbFYeXedUPADArCbVgs1izG4QtaxZrdo+wxV1/ihyNxmtEGxZrv5FxxPpjbuvfax9qEQCgMQitYLMoVVysXaPLOEat0RarwB6lRq4/TKPS7DXyhdjmjEazgxcYjI/QEFvcF/uMaMPkGRkn3jNBY9RGrVyO36g4AICGIrSCza/+J554Ynliza4F7UaQVrBzdJk4+6F51JpYD21ki1atmx2lRqzPvuW4K99rNJrFIt8sj/3PEz0Uc5UpE3+kDDAyTnJwjBKinNaBuPc+1HoAgMYg9CPOsKXNAhV62MXRSbRRijQAIIqEccSZm9d/2e48E1oLWxMJsQYAgCpRQk/HTdSzsEf832Q73bTSndfAxHpoAtY1AKCKlGlhP0SZ7WoSAABAVSkg2GxFL6SFCy+nDeLf5Qt5WqfldM2yT9GVZ6pVAQAAVJUCgn0mXblpF+3a5ZMGVqr1qgd/dAQAAFCMS2RTj2Fd61RdH3bowqsCAEAdCf7R8fKH6IbNbit7gKplY7NlXXZ4VW6v7IoVMs6Bkow2zM4ATE1WRxWN2XVcL3PlWambxj3zl9Oq5e48KznKAQCAABTx0XEZxWvor2ZRKztSX0sXdaXXZqPgCVFdm26xO6iwWMeHU0aXb91RhTfggEtG13FeNqX6Qvp1E8/J30y3b1bT3PXcWD7Rg/YkAIDiCCjYK+mqGx6iO2rchq/88KrN1JEiGlZ9y8fX9VIiJTKsORKz1L/RbIpn9UoUGygLPEFL7YViGfeKrCA5IVpVPgAAeBHYJbL+mgdpw+W19WEz5YZXjff0Cat5nXRZrE3305p2tUBG4jOi62lk3A6OK5Kkji4VIc8dgtXR5Z2TCv7kzs8nwqI+niFaAQDAoIQxHVfSgMN3XX0ftoYt6vLCqyrh5bjWfcV1bEkOKndGx4glwFq4g7pE8nWk4QeDV4hWAAAwKG1Mx+030UppVa+km7izDLcaWXkTVbPfDIt1JSL2Jddw6NIu6jAV0RWJz0Za3s0UV7OS5KAQ4DHqyhc7u2iSxYVoBQA0PAHVbzvd1H07rdq8i25drbJWXkU30O10Z5UUmy3UioVX5W7jOfGjkyR0nHo7TbeFNcIMpdopxq0+TFeIl5CXg9h/TohWOLEBAHkIqICP0rYHa99KpOzwqgXgIboyqWHD7yzH5LJacMTaKZVuU/kicYsRxwdKD3J82x7jNGq8QrQW468BADQcgcOrbupZSHdctosuu2MlZa7aRFc+2kMLv7KENm+6kkwdb9jwqgCAyBPG8Kp9V69SuUX4sFcObKYlX1lIl294kK5ZvpAWXk50q0usqwHEGgAALIrwM7jjilS/hQgAAIAsAQUb8bABAKDelPklD/GwAQCgVhQQ7PrHw+aPjgAA0KgU0dOxvvGwEV4VANDolNbTscbxsNmyrmp4VV5eiYBLuhyZjN6K490qTyV3PBIAACiS4B8daxwPm0WuquFVKzVoLu/HDp1q9aaUUfhkH5xsXJExqmS3dgBAI1LER8fa9nRkqhpe1bawx6lbPBzsAQWkxax6KDqsZyNPbDfAlrpn/I9pGh0m6s84u8IjuBMAoFwCCnZ94mEzVQuvaqNiYPM6QmwHOnnQggnqiXFckSnq01ZyJkXDOu7IZC9NdXC+hwhPj9LwpBlHGwAAKkNgl0i94mGzRV318KqxHtrYn6Y2M6YHB3uS4U+VhS22n5RxsgUtQvjzmcuVDBIFAACKwBZ2PeJhs1hXLbyqi9jShJoy8It7nQ+/sK0AAFAmRagf93Y0rWsVF7tKsEBWN7yqyTh1y4+EPKZjp+WrlsLbS+uK/lKowrbGnf7t8W7EuwYAlEdABeQONBztybCuN6+i25dXzyXCbohqh1e14I+OrNYs6EkaHEsosbV82+k2/dFRJK9mgPwRUrpLOLSqJcoybKt0sWS3baOOPA8MAAAoTMDwqmxd30GXOVwgLOLdRIObHL0dEV4VABBVwhhe9eb1X7Y7zwQ0W8+iJedvcLYS2X4n3V6DQQ0g1gCARqaEno7cRf1WIrOVyPJt9CmEWAUAgJpRhGPY3VIEYg0AALWkoGBvv2ml5+joPGTYwp469KQBAIAGpYBgb6c7bye6YTB3KLCVA7fS6g13VL3jDH90BAAAUFCw842Wzh8iqzuAAcKrAgBAlgKCnU+U84l5+bBlXYnwqnZQJ0YFbpKhVbl9tF/oVTUvo+7xeirl7Mu9zJVnpW4ZxyQ3fzmtWu7Os5KjHAAAUBQQ7DPpyk8to2tyOshwu+zL6aEbrqrah0cWrkqEV00Mq56LbvKFXpWzrRQfThld07kXZFyJKQeG4iBRxrIpGWXEvzt7Tv5mun2zmrbDs1rzEzKYCQAAOCn40ZFWDtCuzUvoK45u6Vavx01VHh+sEuFV1/QlqNezf3me0KtCkMUs9W80g0WpqH7Do8oCNyPyiWWDle3H6LDuvXpYAgAajsKCzZx5JW1yNOnbRVUeHcym3PCqlBykMWojrwFffEOvcqS+lhS1uw1dGV+EI/apCIAspu4dyy7qWfeGHTPbnZ9PhEV9OnsT9gAIYwkVJRAA0HAUMaZj/WGLurzwqla0vvRaL4EMEHrVh+Sgcmd0jFgCrIU7qEsk32g3/GCQoV0tscfgBwA0LqWN6VgHWKwrErGP412nhmndqJo38Ay96hciVVrerljXwoJnH3bXUCWHAEvSoBT2DhoxrXQAQEMTWsFmK7Ri4VUFsZ4+ot5emlTzNp6hV1WIVD3CjIQ/NPYSpdopxq0+TFeIl5CXg9h/t/y4ycKdof6WNG319Z8AABqF0Ao2uxkqG15ViN9Yl5oujAyRKqzyrN9ZBsy2WnDE2imVblP5InGLEccHSg9yfNtqjEgvhIVPvXG1njEKDgCgoQkYXjU4CK8KAIgqYQyv2nf1KpUbgY+OEGsAALAIvWADAACwgGADAEBEgGADAEBECL1g80dHAABoVHx7OvKXyXJTJUF4VQBAo+Pb05GbmJSbKgVb1lULr6pmAQAgSoTWJcLN+aoaXhUAACJGqH3YVQ2vqizwnF6HjnwVw0NZ5gM8wIFa5hX9DwAAqknoPzpWJ7wqxwWZoj4ZYEmkTIqGZdwQK15IYszKz/SnqU1vONlLUx1q/bEuGvKM/gcAANUj9ILNFnXFw6tysCYZvlRZzEKkJznOtQzi1E9rVCSoWHuKWnQUPiOf4s32yDQAAFArQi3YLNZVC6/qF7caAABCSmgFm0W0auFVZbzrXspxbbvyp0eHabKrA0IOAAgFoRVsdlVUL7yqmM70U7ot+xHRGrLLmR/nYboqPFYjAACUSmgFm0kkErRixYqS3SAT7mG4eHQYnScHLjBcIp75yk3i3pfXvgEAoApEakxHtnQBAKBRicyYjgAAALJAsAEAICJAsAEAICIEFOztdNPKhdSzKTu9cOFCWnnTdrm0mvDHPwAAAIEF+1Ha9uBqumylmNy0nq5Zdivt2nUrLbtmPUkNrxING14VUQUBAB4U7RLZdMcGOn/JWWLqLFpy/kOUqZKRzZZ1WeFVFdMDrdm21iI5wq36AcEEAISQgIK9kgZuJbp84UK6fMNq+tSVZ1qWNq2iS8VkNWBxLTe8Kot1fDhldEEfo0RvPJhoAwBAyAhuYa8coF27dok0IORbzW+6kqqk1xLuMFO6aI/Tul6i/o1mBxerJyMNj9K0tKK7qbs1a31bgfmmaaCTg0H1Ulxb5F4hVyXj1G3nq+291nVb7Hretw4Gjv2pMLBqeyvcq1kfAMBsJqBgb6KehT0ufzV/fHTnVR4W7ZLCq8rIeylqd3dHlPFCpijD05Npat6orG8OmdrG4hejno391KKCQ030ZHxCrgphb20jUvmcBpN5wrP64VkHjV8YWIEd7hVBqwCYzVSwp2P1fNgatqjLDa/qiynoyQ7qojRtdXtL/EKuTo/SMBkhV5l84Vn98KrDDjXvFwaWl5nhXgEAs5YiejrqJnyX0wbxj33Y3JzPSsvpmmWfInZnVwsW65Ij9klLephGPQW4meJqNvQgDCwAQFFA/c6kKzex39onDUhvdlVgcSovvGqS1vQT9WoXgsRyWVCqPTdw0/gIDZnWrrZk/UKuxtopRa4QrfnCs+r9CWS+mnag67BYzbv2BwBobIIr4KYew7rWqXo+bHYBlBteNdYzQZnUsPx4aH20s3zOEz1KldWHRbmMFxkR+/q6LFdE60BcfqjMDblq+brNEK3d4z7hWcX+NrI/W63XOZXIjljjVweJXxhYAEAj0iQsZdmVcOfOnbRo0SKZmQt/dPwKLdm8qaALhPezZMkSNZeftV+6kfo+/Uk15w1b2ixUFYdbWnQSbaxnmNQw1AEAYLN79241VRrrb95QUNM027Zt89VcraNSI69epXKL+ui4jOLVbMPnQ1XEGgAAIkhAwV5JV93wEN1R7TZ8tSQMgxBgIAQAQBEEFOxNtP6aB2nD5bXzYQMAAHAS2MIe8Golons9AgAAqDrBfdjbb6KV0qpeSTKqKrcaWXkTVTvAKn90BACARqWEno7b6abu22nV5l1062qVtfIquoFupzurqNgNEV5VxQVBUz0AgBcljOnI8bBr20qELeuywqs6giZxMgIxmXlq3hHBr5CI5uzbCNpUaFsAACiRwD7sy1ZvcLYSiUB4VUe37jGiNhZSbpmR0cGdVDfvli5KDHdakfCCYu5bdW6Roo2WHwCAKhHYh71yYDMt+QrHw36Qrlm+kBZeTnRrqMOruuDASkb3cCfNtKYvQb2l9gFXD4H0WvFAMC1shyVuROEz8zmgk8p2rq9CqcpsYxAGWO8ANCzBPzrmxBWpTQuRksOrupgeWEtD+YI+JQdpjNpy41EHxQzbKvELterMZ+vc6qbuE0pViHgnd3FX+WMJv4cOAGC2E1ywaxxLRMMWdcnhVY04HXLkmQKuiuQaZSWr+bLwDcvqzLfxC6XKDwKZb1noyUFE6wOgUQko2Juo5/KH6IbNpoVdfSubxbqsiH2mnzmIXznWQxtTw7RuVM0XQyXCtpr1lYnFOUmDcrqDRqSYmwMcAAAaiSLUr/atRMoLr1oasZ4+ol7DrxwI5eboMx4KvmFZOT8bp9sOteoXSnV6gLqlM5uFO0P9LR6DLAAAGoKAClj7WCLsFig3vKon/GFPuhvYXeJlrQphHOtS03kww6I2raXmDA8RppZJfEKtyv0nqDdu5WdDrTrXl0m2alkqHiBxlRen4dRG0tFhAQCNRRHhVXnUGTer6VaXWyQy4VUBAMBFGMOr3rz+y3bnmcAWdr1iidRXrMcdo6JnU7bJHQAAVJMSejoybGWbLURUTJFZDfuNzY+AOk3ALQEAqDkBBZsH4+WeMoZ1vXkV3b4c4VUBAKBWBBRsjiWymi4z/R9nXkqrzn+IMrPeygYAgHAQULDPoiXnu2KJbL+Tbq9BQCh2QQAAAAgs2Nwt/VYic8SZ5dvoU1X+6NgQ4VUBACAgRXx0dLcUqa5Ys2Vd1fCqrqAh490izwis5Ai4JFJO+FX3spzyOIkyPfOX06rl7jwrOcoBAACD4IJtjzijU3U/OLJ4VSW8qszvoq702mzTPCGqa9MtqgOLJdYy9ojeVmyc6I0rMeVejcOUyhjLplQ4Js+u5V75m+n2zWqagz8ZyyfQ/AQA4ENAweYRZ66hZWYrEfaQVHmIsOqFV22mjhTRsOofPr6ulxIpkWHNkZil/o1m7BGrF6LYQFngCVpqLxTLnF0cywbhVAEAXgQUbI9WIjUYIoypVnjVeE+fsJrXSZfF2nQ/rWlXC2QQpxS1uw1dGeuDBT9JHV0qqp47Fqujuzon5YZx5+cTYVEfhFMFAGhKGNORR5xxN+GrzbBhbFFXJ7yqEl530KYAJAeVO6NjxBJgLdxBXSL5IgfygwHhVAEAihJ6Om6iO/RIM7YPm2OLbKDLq+jPZrGuZnhVjn/dQl3UYSqiK5qejVf41OSg2PcYdXGca5VVPrp3JcKpAgCcBLawvWOJ6FT5FiMsslUPr8pDe2kr2CZJQsept9N0W1jhUynVTjFu9WG6QioRB9tE7B/hVAEAXgRWwO03rTSsa52q11KEXQ1VCa8agFjPBGVSw4bfuY1oTLXgiLVTKt2m8kXiFiOOD5Qe5Pi28wSPQjhVAIAPRYRXvYMuC2BJI7wqACCqhDG8at/Vq1RuWR8dawPEGgAALAL7Gc4SRrPzo2N1XSIAAACcBBTsTbT+mmV0aw0+NgIAAPAm9C4RAAAAFoEt7Nx22LVxifBHRwAAaFRK6ulYjzEdEV61RLitOHd/139VNgAgekRiTEe2rKsWXtUUMbme2S6aB941wqIWCMPqy3i3UXbufgID0QUAKAIKdu3HdGSRq0p4VTuIk8X06LBYj0hHSHX0XCwQhtUPGW1P9rVRZYs0RpXsvg4AaEQCCnZ9xnSsTnhVDvqU7e6dmUpQX1+C0tkMqwu6nMkXhtWPaeJnQH/G2eXdDuKkLXeZnFb/AFvvapllkE/TQGcvTaqekq3XXWusZ2zr3p8XjvXUG4Wj3DzbAgBCQUDBrt+YjtUIrxpv1iI8TVuFKMeFmCdUrOvxkSFKZINd+4dh9WN6lIYnzXjZJlZMksSYZXVn+tPUpl0lQpSnOvTbQBcNrWU3SIx6NmYHOJhYfbKxHj8A8uzPAa83RX28b06ZFA3rWCmO/QEAwkxAwa7PmI4MW9SVDq8aaxdWMvtAWFxpqciLC9lm61sIeNoVvU9a5EWGYfULBiXdLUL01f65Hi060p+Rz08UX7eLuV6+/ZnwejJkq7KwxbFMareQuT8AQKgp4qNjbcd0ZFisqxJelf3YLGyZKUpIdY4Ra/jW6YyQ7Vyx9QzD6odfeNZ6Y54LmWBRAxA1CqqfjNLnMRTYph5hZfdUrxU2i0r1wqtafuy1a9PUrNSZg+QNd66ltO2/NvAMw+qHCs8ad/qEx7vFvBTzXlqnFvAHz8mujsL7NT6SOgi6P9d6AIBoUkABt9OdtxPdMHgluV3VKwdupdUb7qhqK5FqhldlP/YkGUOByYxJh/+6VGR4VvYnaxeESG3EQmqNDZluU24aHgqs0HiQ4mHRp4Yka93wjMrUBN2fcz2Z0FQQgMhRILxqvrCq3NSvm2hwE11pqDnCqwIAokoYw6vevP7LdueZAmYrtw7xa7pXmzEdwyvW3MHGsFjtlGdwAgAAKJIiejqeSVd+ahldk9NBhi3vy+mhG66q+ofH8KLHXnSnCYwQAwCoCoUdwysHaNfmJfQVR7d0q9fjJtMXAgAAoKoE+5J35pW0ydGkbxcNNK5pDQAAdaGyTS+qALsZAAAAhFywqxJeVcXPqPt3wXrXIyznAQAQmNAKNlvWVQmvWgrVFrcg+8+3Ts6xoqUKALOR0Ao2C09VwquqRZGDe1ua3evdmMfKwZ1cPS0BANEn1C6R6oRXtRjNCWUqcFiqWvBcIU7ZdPVaT+aZIqkGQuBJz/1qcvcv42nb6ztDoVoPHGcb8O77ZGYW7oquJiWO8nOtb8/yuF6txrmRZcJyB6CehP6jYzXCq3qHMuUQpF6hSl0hTnsy3uupLuQjWuDGR2hIxvXw26/Gvf+Y7Nou68ZpLEG9jiAgLKRydAR7ncEVapGGy7YjBnL5PqFVFd7liXr1iXOjD0geTx/amANQY0oY07F+sEVd6fCqjpCiOpRpMaFKfdZLdmQFbnwkTf28UtD9mpgWcdsQUXprVmBlSFiPkKjGsTatbc4ea77Qqhq/8vitRNWV44R3BQpXCACoJCWO6Vh7WKyrEl61WiTXUH+aBW6cRtJGYKliYPGMD1Mqo+qd4dCuAdDHyuu7Bdk8DzIZkQfzlmfFAh8ZF8czFDC8LACgaoRWsFk8qhde1YNCoUq1COZdj+Nqp2mkeyQbpjVoCFRTZFuyYi/XtyYtYu2UojyhUvnjJH9g1b7yIKFV85THscDTbW2U7l+TW2cAQE2Zw1GhODF6upxUKfj1vJrhVXPJE6rUDHE6EPdfT8Auj/QQUZ/t7A0QAtXc/2g79SWy7o3OqYTLwrZ83mao1JyPjslBFd6VPxIWCK3KZecrjx8QLS2UKul1AQBQSZq2bt06EzQcaqVBeNUIMN7t9IkDMIsJY3jVvqtXqdwIfHSEWNcX+bEx6FiWAICqEnrBBvUlOThDhQbFAQDUBgg2AABEBAg2AABEhNALNn90BACARiUyPR2rEl4VAAAiRCR6OrJlXdnwqh6Bi7jJmrmOI8YHAACEi9AKNgtoRcOrukKOygh1MoaSWi7SGBWI8QEAAHUk1C6RioZXdYQcnabRYaL+jBFTQ5AcdM4DAECYCP1Hx0qFV3WEHOWId5MJWoreIACACBF6wWaLuhLhVXO6V9vxogEAIBqEWrBZrCsSXpVDhprR8GQEu2EadX+EBACAEBNaweaPgBULr+oOOUpJWtNP1Osa93C82z18FwAAhIcACmiO7WdNs4tBjm1YRbiMioZXdYQcZQ2fUPPKZSJSG3nEqQYAgJAQQAUzNDWpRhsZX0e9iTFh/Y5Rondd1a3RRCJBK1asKE2s2ap2hQS1xi6csMcldIxlyAlRjgAAIaPkno4carOlmT/Vxam5JU1ba+ADZssXAAAalSJ7OiZpUPp/m6htqMsaSYUtbSpxzEIAAAAlEczCTg4qt4HqWMLzGIEEAABqSjDBtuNyqHgcHIPDHBcQAABA1Qkg2NM00DlMqcwMjXWprOQa6qfatGNmyx4AAEAgweZWIvXpxo3wqgAAkCXQR8eOriEacfQwqf5HR7asywqvyrhCrMq24zlhV1VnGUe+0YHGKwRrzj44eYRvlWTbrrtT63XXUqvbtcT7hrsJAOBBIB92cjBDzWu5lcgk9caF2HBY0ip/dGRBKy9S3zh1xy1XjvXBdIwSU6pzuhl2lVvAsEByu23uwi6XWR9X84ZgNfchU7Z9t5MY9Uyodez9W/MTq09W6xh4tB8HAAAm2EdHU3Rkqk0YUu4wU55om66cJA16dYxJdlCXGWfEpk4hWLWFrf4OdGctcnt8BYeF72fZAwBmG3kEW1io0jXAf7OikU21ibvBol1aeFXLlSO7nucZSWZ6YG027KpJoRCsZiRATtVwY4gypjrUQ3Ksi4bWchn85jBFffrhyQMzdMKFAsBsJWBPR2GRSkua/ypxcKTaWNlsUZcaXjU5qOraMWKJqhZuQ2zjwyln2FWTfCFY3S6RargxRBlr9EmON1ML/53eSmlSDyJO8V6a9HxDAADMBors6agt7drDYl2RiH2y488YdQ15+J/9hDbMIVhz/Oe1eXgCAOpLAPXjUKRpZyuRGsBCVJZYs5/XdIWwZVrUoAUhDcEqHyS9tK6ulQAA1INAFva63kkaalOv4HaqrnBxGWWFV421Uyrdlq0vtxjZmMdtwQIv3QvsLrGOLW8IVrcPu9SPf479BDmnSRrM9FPavB5oBghAQ9C0devWmSVLlqjZ2rL2SzdS36c/qea8YUubRQkAAKrN7t271VRprL95Q0FN02zbto0WLVqk5pzs3LmTWJelRl69SuUGsrDZ+GzNWnN2qo1rIFpi7deiBk3vAADlE9AlkqCxmQz1t3RZnUi4A0gXRmfJxa9FjV+nGgAACE4RjuEYLU3oSfYPr4XVCAAANSSAYGdHl4k369Yi9QsIBQAAjUoAweZu6dYrPbea6Bhhn+xaanZ12a4W7FIAAIBGpeQxHRmr92BtfLIIrwoAaHQi0dORLeuqhFf1QwVbKsUt725Fk7ccAAAokQCCXZ+ejix8VQuv6kWJYU1ZrGU8ErtFiCinNw7RBgBUnEAWdj16OjJVCa8qLelu6jYGFZA92B0WtrM9tb3cztPtqvncEPU7elBaPRFpeFSFSPUoS+C0ytX+XOt3j2cHP8jW0Xt/AIDZTyALu57R+qoSXnUyTc0b1XFw2NI28+HDIilHLbCPdTDJ1rpHSFMZn8Rj5B0Z70NF0PMpiz/g6v3PjCWoVwcH0evLdTuJ9LQMrWosd+0PADD7CfbR0WFdcqqdSLBFXfHwqqbI8gAGlKatO9Q8x8EmI6wpU05IU6+ytDWt99c2RJTeagmyXp/DqZrTvIzx2x8AYNYTQLB51PReShgW54weVkutUS1YrKsSXrUUvEKa+oVgLRQZcIcQa9O/zj1H1SIAAPAjgPpxJ5ku6jAtzuQaYYNWN1Y0C1lNwquOj9AQW62L1Tz34iRX+FLfkKYqBCu7R1SO9bGzlyjVnvsB0yzLsJSnR4dp0posDr2/nIIAALORAAroMWp6DXo6squgauFVzZCmOQMKx6hnozN8afe4f0hTGYI1NWyESLX83xO6obpXWbEe6ktk8zunEsEt7Lx1BwDMZnzCq3IriTYaUnPecCCo8j481iW8Klve/C2vFkJX6bJqWXcAGpAwhle9ef2X7c4zPmarX8sQM9WmlUhFxRoAACJGwJ6ObGVzaxBnm+RsimhzshI7yJREpcuqZd0BAKEjj2Czlc1WdH3bYQMAQK149NFHS061oMgveRptfQMAAKgVJQp27WBrHgAAQMgFuyrhVbmlBUYZBwBEkAIfHb0+NnIq1OSvfNiyLj28ajZokju1bnhGrVMlCj0Q8MAAAJRIgY+OXh8bdaruR0cW19Ij9fEoOaqe3O3b6FY+sfpktU6VQEsOAECVCLVLpPzwqv6MdmetbrsHO1u/Ks8Z8nSABuT63TQu5wuFQLUsaEcIVZlnxWWZVL0VZcxsR5nqQ667TM4DADQ8of/oWHp41TwIwZzqUBa4Hbp03DuEqmN99VZRKAQqI0S3szdBY2p/YwmO7md1e9cW/0RPRsYd0YG1Mv1patNPD3eZAICGpKwxHWsNW9Slhlf1RQimHT5Vhy7NF0LVXJ/RAZf8QqAyHDBK7s+ykJODHsIrA1Jl9x1rT1GLjijoLhMA0JAUOaZj/WCxrkh41aAoy1da2DKVY93qbwAdNGK6OwAAoERCK9gsmDUVa98QqiUyPUDd0gnOwp2h/hZjoAFtubvKlGFWuzrgAgEAeBJawWa3RFnhVYtGCKtPCNWSEGJMvXG1rzgNpzaSjLjKoVXV0GWtA3FHmXH2efO4kwAA4IFPeNXaUJfwqgAA4MPmzZvVVPGcddZZVQmv2nf1KpUbgY+OEGsAALAIvWADAACwgGADAEBEkILNvpRKJgAAAJVnDju9K5kqDX90BACARiUyPR0RXhUA0OhEoqcjW9ahDK9aSPDxQAAAVInQCjaLayjDqyJ8KgCgToTaJVLb8KqWVW6HWuXofRxi9W5XqFPDgkb4VABALQm1YDO1C68qrPI+MT2i5HN8hIa6+qhnsbm+EQxKiC7CpwIAaknoBZst6pqEV2WSHdSlwpuOjwxRV4daySvUKcKnAgBqTKgFm8W6phH7hOR2dA3RyPg4jQx1kdZrbxA+FQBQW0Ir2OxCqK1YWyTXcPS8Nkr3r8nvqphG+FQAQG0JrWDzR7rahldVxNop1dJCKTmMTB4QPhUAUGOadu3aVdGuhDosYBBCGV51vJua1jZTBk33AGg4whhe9eb1X7Y7z4TWwtbUVKwF8mNjH8QaABAOIjOmYz1IDs4QvBYAgDACwQYAgIgAwQYAgIgQesHmj44AAABCLthVCa9aDbhliWzeZ8YiAQCAyhJawWbLuirhVWVnl0oyTt1taerPWPFC8MESAFAtQivYLK5VCa8qe7dUEI4XQglainaAAIAqE2qXSMXDq7rCmt5ihkflUKpWzFRjHStpN0duOFVhXcd7aVIGgVJ5vL1exy+cqpzvpm71FtA9nn0jsF0qjv141c3ad26dAACzldB/dKx4eFUjrOlHeiYsK5zTWIJ6ddAPr/CrQixzw6kmZddz24KfWErrgoZTnUxT80a1/7ZOIj0tQ73yg2CK+lRZM5kUDXcqMTb341knAMBsIjJjOjJsUVc0vKoZ1tS0YtuGiNJbLVE019HhVysdTrUlRTJcCe/fnOZl0s2irHZObMXrgFLmfoLUCQAQaSLT05HFumoR+1is48OUUh8Lpa9bLfKmxuFUhTBrv7uVvMQYIV4BaCRCK9gsUlUPr6otW4EMfWpNeiME3jecqqZS4VRd+/ElSJ0AALOG0Ao2uwKqGl6Vw6AmrLEXuazOqUR+C9svnKoDy6ddfjhV535k8vqgGKhOAIDZAsKrAgCAIozhVfuuXqVyI/DREWINAAAWoRdsAAAAFhBsAACICBBsAACICKEXbP7oCAAAjUpkejpGJrwqAABUiUj0dGTLOvThVbm3ZL6AS4WWAwBAEYRWsFlcQx9eNdZDExMYYR0AUBtC7RIJfXhVw4LODXMqrPxODtpk9aaUlj2vr9fRcT9cdeI8hEwFAHgR+o+O4Q6vqvBcJqz8jVnrfqInI2NnFwy9mq8cAEBDE3rBZos69OFV8y3TBA29GmRfAICGJNSCzWIdjfCq+ZYVSyX3BQCYTYRWsFlEQx9edYe1yHOZdjzrgQfYcjZCpvqGXs23LwBAQxNawWY3RejDqy7Os4wfBFxGlzVyTOtA3BEy1Tf0qt++AAAND8KrAgCAIozhVW9e/2W780xoLWwNxBoA0MhEZkxHAAAAWSDYAAAQESDYAAAQEUIv2PzREQAAQMgFuybhVbkDDeJ1AAAiQGgFmy3r0IdXBQCAGhJawWZxDX14VQAAqCGhdolUK7yqbWPzfOo+2ktTtM62yFWYVb3cts6z+Qh/CgCoB6H/6Fjx8KpeTKapeaNlgQuDnHo7WYTHqTs+RX3KMp/JpGiY84WII/wpAKBWRGZMR4Yt6oqGV/XCCAIlw55ywCYOhyrDnCpLOs6DEYh8hD8FANSQyPR0ZLGuesS+fBi+byuxOCP8KQCgPoRWsFkgqyLWOtypwCukqh321BUO1WYa4U8BAPUhtILNboiKh1eN9dBGHppLuTnskKpCmHWY1fhwijIy7KkQZCMcqkz8gRHhTwEAdSK0gs0kEglasWJFeWLtGtk8ZozjODE4SBObb6fNal4mcxR03jZnmXaJWAnNBAEAtSLUgs2wJQsAACACgg0AAMACgg0AABEBgg0AABEh9ILNH/YAAKBRiUxPR4RXDUixxzAbjhmABiESPR3Zso5MeFUWwJyyjCBSXkA0AQBFElrBZtGLVHjVnG7sE+hQAwCoKKF2iXCHmWiHVx2nbrGObdXL/fF+xBtAJweTsnpYyuVeZan6DnTr/Cbq1l3lzfU5MJXK9tyPO99cHwAQGUL/0ZFFOxLhVY3u7TJJIbe6t1PvOrE3FulhSmXY8hZvABuzlv9ET8a7LLXfqQ6VP9ZFQ2t13XopMabXF/vidf3q7Ls+ACBKhF6w2aKORHhVt0tEd3G345fkiTviVxYvE/tdo+O3xpstoeX1zXyN33781gcARIpQCzaL9WwIrxpbmlBTefAsqwQqtR8AQOgIrWCz2EQmvOoOa5E349TdRjQ2M0aJ3s6sT5nRdfEryw+5/jCNqn3Zx+G3H7/1AQCRIrSCza/0kQmvuti5DyvxBz8h1k2s1soyH0uITZVFLurS12W5L1oH4t5l8Xqe6H1Z69rH4Vdn3/UBAFGiadeuXRXtSrhz505asmSJmsvP2i/dSH2f/qSa84YtbRYZAACoNps3b1ZTxXPWWWfR+ps3FNQ0zbZt22jRokVqzonWUdbIm9d/2e48E1oLWwOxBgA0MpEZ0xEAAEAWCDYAAEQECDYAAESE0As2f3QEAAAQcsGuSXhVAACICKEVbLasSw+vKuBgR462zBxy1QiGVGlyygMAgMoSWsHm5nxlReqLtVOKsr37aHpUzGVjhgAAQNQItUukvPCqMWpPEQ1rxc5MEaXaZUAmR3hUz1CmVm9Ez/Uk3INR53PI00LhUlXvRo8yAAAgKKH/6FhOeFUOujQ5ZUUOGR8ZosRSy7yO9UxIl4tM3GVbB98QgmuFMrUCJnmvx64VGRzEXjaY9AqXmg1nmuHu8DqQtasMAADIR2TGdGTYoi45vGqyg7qGRoQlO01b013UoRXStH7bhojSWy3fszsEqdd60rVSIFSpK5ypDNkq6yFwlwEAAHmITE9HFuvyIvYlqaMrTVvHhcgmOiyLlkU4zgMJKAvZL5h/0PUAAKBGhFawWSQrEV412ZGg3rZeStjmtcAYsCBvqFGv9eTHTJ9QqD7hUu2QrdYsAACURGgFm90QFQmvym4R8c/Waw5rmsiGQvUNNeq7nuWvNkOYSvd0nnCpcR5STIZsBQCA0kF4VQAAUIQxvGrf1atUbgQ+OkKsAQDAIvSCDQAAwAKCDQAAEQGCDQAAESH0gs0fHQEAoFGJTE9HhFcFADQ6kejpyJZ1w4ZXNbvEy2TUO2cZJwSSAqARCK1gsxA1dHhVFUjK6hYvjiRuiLK5TCYEkgKgEQi1SwThVRXc1V1NAgAal9B/dER4VcH4CA21NFNczfI+dJd5xwMBADCrCb1gs0XdkOFVTVFe20yZiR75diCBSwSAhiTUgs1i3bDhVbUoc7k6CiAAoKEJrWCzSCK8qiDWQxNjRG1wewDQ8IRWsNkVgPCqiuSg5QfnD587VB4AoOFAeFUAAFCEMbzqzeu/bHeeCa2FrZndYu1sHphNVezgAwCIFJEZ03H2k6RB/rCYkyaox24SAgAAFhBsAACICBBsAACICKEXbHYRAAAACLlgI7wqAABkCa1gs2Vd1/CqOdu7KLQcAAAqTGgFm5u31TW8KvcwNON3AABAnQm1S6Su4VUNC9qxvswrPZxq7r4AACAYof/oWM/wqhIhup3ctVytP5bgeCElhlP13BcAAPgTmTEdGbao6xZelZGDB3CMEMtCTg56hDINGk41yL4AAMAgMj0dWazrFl7VRvdG7KAR091REpXcFwCg0QitYLOY1j28KiMEvls6uVlsM9TfIh4A2vFcbDjVfPsCAIAChFaw2V1R1/CqGiHG1Bu33CdNcRpObbTifJQSTtVvXwAAEACEVwUAAEUYw6v2Xb1K5UbgoyPEGgAALEIv2AAAACwg2AAAEBEg2AAAEBFCL9j80REAABqVyPR0rGl4Ve5Qg9geAICQEYmejmxZ1y28ajXFe7xbtcNWScccCRt4gAEQOkIr2CxmdQ2vWgVkpL42soM/cRojFXMEAAAKEGqXSLXCq0rr0bZy3fE8ckOneoZjlaua+xFJW6SOfL3+NI0OE/VnnAGf7ABQXnWSVm43dbda+d3j/Jagp3OX2/lyUYAQsn7reZwDua29nlk/hI8FoFaE/qNj5cOrjvuHQpW4Q6fGfMKxOveTDSLF+VPUp9fPCDu/UwgXW/iTCVIRXl3kqdNkmpo3ivyxLhpq6yTS02uVGOrlsm68jiWcQUPIeq+H8LEAhJHQCzZb1BUNr5ovFKofpnWpw7G69mPD+TKEqlpfCN2kDhLV0kxxuZKLvOFZlRsn3iwE1JjmZYwRyMqKm6ICSnnVmddx19lvPROEjwUgFIRasFmsKx5etVhY0LzCsWam/KP8CRFjy9S2XNn6lBH9DJ96NdnhU2c3fsdWMggfC0A1Ca1gs4BUJbxq0FCo2ipmvMKxsjXrJcCu/WdJ0pp+DtbnFLHxbjEftE6FGB+hIa7rYjHtVWcv8q2H8LEAhIrQCja/olclvCqLSaFQqGbo1NF2n3CsYj/s840rdwK7PnS+sX+Z1Mc39hdL/6/OF6mNWPgC1MkPIaS6brIFCg8cHDSEbL71ED4WgNCB8KqVgttXj3TQTFChrQTs0uDvkBjdHYCKEMbwqjev/7LdeSa0FrYmzGI9LpuzqcTWbS3FGgDQEERmTMewkxxUH+tkqkOLiFgPTcC6BqBhgGADAEBEgGADAEBECL1gs7sBAABAyAUb4VUVRoQ/Ry96AEBDEVrBZst6VoVX5X3qFiUyBawLjVN3W5r6VW9ENEQBoHEJrWCzqM228KqOLuscFMrV69ETGZvEL2gUAKCRCLVLZHaFV3XB3b3VpMRzGyuK36QOJsX791qP88QyM8yp5/4c61kp62IRZdnrG+Fb7bzscSCEKgD1IfQfHWdNeFW5zEDG/dDR+/y2sbqs67rMTCyldX77Fg+YbNjUPHWw1xPJDtPK7iI5soKVL9Jg0mcfQsQRQhWA2hGZMR0ZtqhnTXhVM+7H2mbK6E4v+bYxybeeWZeg6+kwrdJd5DoWv33INwPOtyx5hFAFoLpEpqcji/WsCa9q5vM+3ILst42bSq+XD899CKtfTiOEKgC1JrSCzQIxu8KrGnCX8jGyrdRA2zCVXk8jP9C61vfbh3iAIYQqAPUhtILNr+GzLbyqg+SgCrXKH/MCbhN034HX01h+e3P97nGffQghRwhVAOoDwqtWinqEVwUAVJQwhlftu3qVyo3AR8cwizXCqwIAaknoBTvM1D28KgCgoYBgAwBARIBgAwBARAi9YLO7AQAAGpXI9HREeNUimQ3HAABwEImejmxZI7xqFYCoAxBZQivYLGoIrwoAAFlC7RJBeFV3vkhcBueZVrJ7XuBd59xjc+5fnQu1PzNcK0KqAlB/Qv/RsbHDq/qVURjvOruPLeN/LoSo2+FahYAjpCoA9Sf0gs0WdcOGV/UrIwhedVaLbPKdC7Nc+TaAkKoA1JtQCzaLdUOHV81XRj786lwySYRUBSAEhFawWWgaPryqXxmMUT+7TiZeddbobYOeC/EAQEhVAOpPaAWbX+URXtWnDFG/jXJbKz9bJwXX37POAvPYBuKFzwUjhB0hVQGoPwivWilqEV4VIVwBqCphDK968/ov251nQmtha8Is1rUIr4oQrgA0NpEZ0zHs1CK8KkK4AgA0EGwAAIgIEGwAAIgIoRdsdgUAAAAIuWDXNLxqsXDnFMTUAADUkNAKNlvWZYVX5SZwjh5549SNHnoAgAgTWsHmZmxlhVdNDtJY1xCtVWHvpgfWcps4tLIAAESWULtEyguvypo9RoneThoYH6DO4ZQdzMgz9KhycVghRa2kA9f5hlfV8Lb2csOKd+SLxC4UtyvFnHes71EOAKChCf1Hx3LCqwrJpjX9RL1tw5TaqCLjCbxDjwomdUhRzu+iobWWkPquL3GGQM2GKC02NKpfiFUAQCMTmTEdGbaoSw6vKuCY2DmYlqwZetQMKRpvzgqs3/qMX4jSYkOj+oVYVYsBAI1JZHo6sliXF7FPWK3cnZutYm2tsvgWE3q02PU1pYRG9QqxqhYBAEBoBZsFq9zwqvaHxuQa6icjfGm+0KNe5FvfL0RpsaFRg4RlBQA0NKEVbHYLlBVedbyb4vaHRmtorHRbN43nCz3qRcH1/cK1FhsaNWBYVgBAw4LwqrUCoVEBCD1hDK/ad/UqlRuBj45RFmuERgUAVJLQC3aUQWhUAEAlgWADAEBEgGADAEBECL1gszsBAAAalcj0dAx1eFUvuJMNmuIBACpIJHo6smVdVnhVIZsDrUYrDZkKBW6ykg76BAEGAISJ0Ao2C2dZ4VW5s8yE0UpjrMvRY9GB2SVcdV6Roh3roYmJbNAoAACoJ6F2iZQbXjULxxRJU78Rsc8XFmkWbY7UZ1rYDkvcJ4Sq7s3IONbPWvaOUK2w3gEARRD6j47lhVe1GO9uo3T/RuoJairLuB5mpLxiQ6j6hEoVIt7JXddV/lgC0fgAAMEJvWCzRV1OeFXuEt6W7qeNhlqbVm7rhmdUbh6KDaHqFyqVHwQy37LQk4PoTAMACE6oBZvFuvzwqrmuEHNAgonVJ6tcAynEzRRXsyXhGSo1SYNyuoNGpJhjjEkAQHBCK9gscuWGVy3aFSJRbo4+Q+T9QqjK/GwI1YKhUqcHqFs6s1m4M9TfkqatcGIDAAISWsFmV0JZ4VWF8I4M8ahfcdv94WvRCnHV4VObmtZSc2aGnHGagoVQLRgqVQi5WFnlxWk4VezDBADQyCC8KgAAKMIYXvXm9V+2O8+E1sLWQKwBAI1MZMZ0BAAAkAWCDQAAEQGCDQAAEQGCDQAAEQGCXW94cF5u5meHCAQAAG8aRrD1gLiO0KkslFUMwJRTpmScurlcFRBqnBuLC7o6qtFJ3VkWACDaNIhgW51ohCyS1kXdK7El1V6l8Km5ZVro7ukT1BPzW6dSmGWpLABAZGkMwR4fIUsXO4SEMdM0OizlmlIyQHbuYAe2VaxdFjrpBaYrg6fdlnpOmRY68FSrZV5b65iBovLt3xGy1Uo59TTWv9ssy1xHJ3vjPMcPAAgNDSDYQozWsiy2UL8Oqzc9SpZe84AG7DaIU+9klx32lBP3PJcujTbKhkPtEtsMrXW4MmioTawzlGOpe7s6nA8Kex0ZnnVM2NkCjgIo/njun2N16zqqUK5DI5ay5q6foLRZlu+x+B8/AKD+RGZMx4rgEGedZbhD3FauNi2FNSp0T5C1fuW8EnlLH7MiN+HwOfi4OlwPCsc6MiQrL+MogT77Ny1kNViC9UDwWL89nS0rk+dYMj7HDwAIBY3V0zEz5fJVu9whyUHK9FshmyTCQmUXgtP6NRIPGebj7rDxc4d4PSjUOvmWMZaFLCzn/oyoB0f641wl9h7rm/vL5DsWn+MHAISPWS/Y01ul3ZplfJ14/RdCZoRd1fGxpZtACjmR3iztEf/U292h8XDBSHzcIbwPORKNrJQcaCF3/1kLuo8rrS11JdC565tl5T8WJvf41YkBAISKWS/YsZ6N0hq1w6wKK5UtzRwXg3QTsEuBW1TwAL6WT9kRnlV+WPRxd2i0mAr7VoddlWFdPd0hbNCK5eze4AEP5IC/XvuPU7M0gpXbwscdktVrs6w8x+J7/HIvAICQEfrwqgAAUCvCGF617+pVKrchWokAAMDsAIINAAARAYINAAARAYINAAARAYINAAAhprF6Os5mdLM89E4EYNbSkGM66lCnZiq5R18FQrM6gkB5gNCsAAA3DSLY2c4lMtaGCpw0OTxamuDqIEyyo0spuKMFuvHrnIPQrAA0Mo0h2O5YGyq+CCWWUsx0K/C0spq1BaxTNiaUzjMsT1ePQdNF4d5PU/ctNNDK0fF4qeoN6bbU/WKRIDQrAA1NQwi203UgXvWtUHUy1odeZoYlHRUCFO8l6s9krfGhtZaoJtdY81a3b9YxIVKeYUstIYsLZbaDLomFXR0fofaU3IMK5CTyXZa6t6sDoVkBaHQaQLC164D1iC3ANhriuB0ut4IWnI3UlxMcysQZVS9f2FIryJRQ1KyAJQfFdInuEIRmBaDhmf2CbbsXxmwL0LZoc1wPuWLqEOi8Vq6RJtpp1DNin8AhvFaWAz93CEKzAtDwzHrB9nYvWORbJnGFPXWK7XTBsKXso57KqElh4bIB6nwAuEFoVgCAP7NbsIWYSf3T1qQDL9dDjHr6ZCBS62Mguw7YMlcWuVNs84VgFcs2Kj+xdMOwhUuynNjShMjV27iazGkx1eXLfSI0KwDAAuFVA8Mf2NqE7AnrNwNhAmA2Esbwqjev/7LdeaYhWomUh+5AArEGANSehuzpWDq6AwkniDUAoH5AsAEAICJAsAEAICJAsAEAICKEVrDZZ+yFX37o4Ngd7hghQSlnWwDArCWUgr1hwwb6zGc+QwcOHFA5FjzP+d/85jdVTh5Y9Ix2wlYKUahQL1GGUAMA8hA6wT548CA98sgj9LOf/Yyuu+46W7T5L89z/tTUlFyvIDJmiNGdOuytPDhAkysQFAAAaEIn2IcddhitXbuW3vKWt9iivWfPHlusOf/zn/+8XK80rHbVdswLaYlblrczFKqyxqXV203dKoRo93g2nKiMdeRabuebyDL08jxWvsPCnqJ19j7NugzQgAzx2i2OhLP86myuZ9U5Wy8+B3nqAQAIJaF0icybN0+KshbtVCrlEOu5c+eqNQsw2UtxW8xEkmKYpMFMP1HvOkvIOocppTrD6LgYMo0lxCpK4SbT1LyR87poqK2TSE+rkKv2crkdr2OJqYUQx/gU9en9ZlI03BnA7WHsU1ZXbyOOaaqD8wdlLBD/OpvrWV3udThV4oBPXX1oUw5ABIjEmI4sylq0X3rppeLFmnG7RLS7IdZDG/vT1NYUp+GUEUbVtIQ5hmh6qyWSOrJevJlazGlexug8JtlBXZSmrTvUvAx9agwywLE8JqdIx4TyxdhnrD1FLXobcUzOuFB+dXatx/Uy4mX7BrwCAISKyPR01KL9d3/3d9JNUpRYF0AHYbJh4Yuzta3EXQX5rwg5vnTLOi6bouqcpI6uIRoZ54BPXsGwAABhJ9SCzbBId3Z2SjdJ5RinbjmCyhglejuzvlzDqtWR+YqG3Q28n8VqPraUEpO9pD0VpSDr4oqPbVNEnXm0nHRbG6X711TmgQEAqCmhF+yycPuw5Yc2/uDGas1WbpIG2e8b76bxWA/1JbLrd04lglvYZjm8a0dLD8tnntZhVjnpD4uO+pl+b4GxLD6coozXuFvF1jnWTqkWxKwGIKogvGq5sFuCv0NGoTkex7Be26xiZwMA3IQxvGrf1atU7my3sIED+bGxD2INQFSBYJdLhDq7JAcxojkAUQYukQJs3qkmAACzmuWL4BIBAABQISDYAAAQYiLR0zHyPDZAf9c+QL9XszWn3PLrXX8AgARjOtaaeopfobIhzABEBgj2bOeMHvrGaA+9Xs3mUGg5ACA0QLCDwpboa7rpATXL3du/oOflsiZ6s0zmOsw0fft/9NJvf9FLHWL53w1N0++HWtW6nFrp24+pVR37EUlbvo58Y3035notokydx/uRyzzqr5dzltf2jJmvy1fbfXsN57mPGQBQDSDYQRGW6Ec/NEQ/ulvN3z1Ct32ogy5g4RPiFvvWDP3yjzM0cn2arlpjdjKP0Qf+rZ/eeF4/jYjl3+iK0eu7JuS6Mn0rQf9yk4yh59jPLyfFNnJ7zp+ij+r1J1O06X94uTD8tlf41l9TQvniIfTYpZw/aOwHAFAtINhFcMGlXXTbnZYYP3Bnmq6+Miksza00LcS482KZTa9fmaI3/sdIfovTtFg/OEQ0tVVYwM792HA+DdFVen22fH8xRb8Ti0xL/e+++BPv7Q08668poXwqUB4AoLJAsIvh4jV09RSL8Tj9aCpFbztD5RcDi3XLMK2cdFmy26eyLgg3QhjZOpfry2RZtKal/o33n2ytm49S6+9TPgCgtkCwiyJGb3t3mn60ZoSm391ufag7YynFftFLG5Wr4febhum3DleDQlulzHlZsZTr88TFHfTeXwzTj93+adf+fZHrZbe39+vAo/4av+2Dlg8AqDoQ7CJhl8f0fxB9tEtHD0nStcJKnv6g5TLo+GyC1q9zBexQ/mN2K/zdpnb6aLP1AZLX/2wmoXzFYj/sz24xXA8639i/TJ7N8JzbZ/frJLf+Gr/tg5YPAKg2iCVSgLrFErm7m958Zwf90i3+AICqwLFEdu/ereZKoxqxRG5e/2W78wws7BDxgGwip9IHxcWHWAPQ8KCnY0i5YB0+7AEA/IFLBAAAFGF0iSC8KgAARBAINgAARAQINgAA+NDT06OmnPjlVxsINgAA5MEtzvUSawaCDQAABdAiXU+xZiDYAADgw8DAgJpyirWZX0sg2AAAkAe3ONdarDGmIwAAFIEW6XpY1ujpCAAARVIvN4gJBBsAACICBBsAACICBBsAACICBBsAACJC3aP1AQDAbKKa0frqKtgAANCoILwqAADMYiDYAAAQYtDTEQAAIgJ6OgIAQASBYAMAQESAYAMAQESoe7O+2267TU0BAEC0ee9736umChPJdtgs2Oedd56aAwCAaPKLX/yi6oINlwgAAEQECDYAAEQECDYAAEQECDYAAIQY9HQE4ePxW2jVqlvocTUbSgrVMQrHACIHejqC+sLCtngxLVZp1S2QOACCAMEGNeZe+syKUWq/bwft2MFpA509/ZhaBgDIBwQb1IGz6czT1SRdSF/84oVqmujuz2Qt78/cqzIdFvlnhOSrPO1+kMtVvsi5ZZWeVsh1P0OfWaX3y+sEKIMx81dcT5tVtnP9VYSXBFALINigxlxIl3zg27Sahc5WS8Xm62n6EmV5b/gAfXs9CzJb5NfT2Rus/Ps++wit5u1OP5PO3jxNbJs/fvconf0Borvk7h6jaYrRGTxpsvkRivWr/a7uJdLT+cpw5e+477O0XO6M86fpKvmGwPntNNoL3zWoPhBsUHMu/KISukvusixULdzLP0vd2tg+I2aJ4+Pb6REj//SL22n5t+8SksnC/whtFyr52PTZdEl3jB5hxeb1zz6TbANes7ydLuZM3q85zcv8ynDl23A+qYcOJ7a81cMDgGoCwQb148IvCuHeQB+QAlw8Qm9p+rF76a5HhEV9+sXU/ojYz2PTdPYlboWtAkLI79MWtkxfFI8QAKoLBBvUFvb9mq4QacV6uDA00vVxPQ2qTdj9sfkDl0hxZEuY1q+nR9ovFhb16cSzd91FFPPdmQ9+Zcj8Ubpb+TpkPk+41gegVkCwQW2RlvBq9bGO3Qmj1N7/kVwXhs2F9MX7PkuPrLbWX3H92bRBf6QUwskK2i79G9bst4W1rWaLwK8Mkb/hbLp+hZXfO3228mE715cJ7a9BDUC0PgAAqADVitZ38/ov251nYGEDAECIQU9HAACIIBBsAACICBBsAACICBjTEQAAKsSsH9MRAAAaEYzpCAAAsxgINgAARAQINgAARAQINgAAhBiM6QgAABEBPR0BACCC1LVZ37XXXqumAABgdvCFL3xBTeUncu2wWbCDHhwAAISdYjQN7bABAGAWA8EGAICIAMEGAICIAMEGAICIAMEGAICIAMGuBNMD1No6QNNqtuaUW3696w8A8CW8PR1ZOJqaqHXAkI6oiUk961uobAgzAJEj3D0dW7ooMdxJpmaDgMR6aGKih2JqNodCywEAoSaELpFmWtOXoN5142o+y/RAKzUJC9xKrZaoS6uxm7pbrfzu8WkasKet7eQ67u3sfGNeI/O7KVuDcerW8459meswouzOXpqc7KW4WM5vCp51lqua+xFJW75+dXVjrhcXZeo83o9c5lF/vZyzvLZnzHzHOR6ggW7Ocx8zAKBWhNOHnRykMWrLCq4i1jNBMzMzVhozRH0yTc0bOa+Lhto6ifT0WhYnIVbxKerT22VSNNxZwC0gLNG+riEa0eWPj9BQVwcl5b56KTFm7SvTn6Y2RyVj1LOxn1pa+ikjlk/0xHzq7NzPTEZsI7cPWle/7RW+9deUUL54CE11cP6gsR8AQC0J7UfH5Jp+SkvBNTCtv7YhovRWa3lLitr5PT/eLMTSmOZl01spTUPUprdja3JyijK8jF0EMxMkdDWHZIcQfKV44yNp6l8jZIr3JcSYJ5lYe4pahkaEzOXBq86u/djkqatpqbde9xPv7Q08668poXwqUB4AoPqEVrBZTDemhmndqJpn4YsPUyrjtgoDIMSGLV65nUwBrMTkGupPsxiP00haPQSKxa/OmamsC8KNT11NS31i9cnWuvkotf6lnCsAQE0Ir2ALYj19RL2Gf1Vbz4Lp0WF/0TOJLaWEeJ33cIlbgurrJ45ReypNI90jlE61Wx/qXPuSdXC4GhTaKmW86pzsoK7JYRp1l5uvriZyvez23ufCo/4av+2Dlg8AqAuhFmyhbDQ41mVNsl82YX3M49f1zqlEQAtb7ENYtuk29ZrPKWDTNnZ5pIeI+myfiXNf8d4EjQ265Fr5j9mt0Dra7lNnPq4E9cZVfdj1oPMD1dW5vd+5yK2/xm/7oOUDAOoBwquGgfFuahrpoBm3+AMAIgXCq85SxmUTOZXaiHIsdQAAEGBMxxCQHMSHPQBAYTCmIwAARJDoCDa36IjqB7B61h3nrbaErc5Rvv4gh3AJttfNFcYbjj8Sav8zJ3eXTBfcbI4ueoY663BsdSm7QvuWdVdNEp1d/F0BwsrBXVeedzT1HM+GJYgg5jkE0Sf8Fjb3RgxRwCIpHPyR0OhcMkb5eztmpsRv5sIAnV2qQD3LLhdZ9/aYPOfx4ZTRoWeMEr3xyoi2bHuebTcvBa6FaMrO4F6hzRRXs1FDn0MwOwi/YDssoClapwI75QtM5BlwKWc9K0hU1jhmS8pY17NDzTTx77k/4/xImBxU857bjdPIUIKWLlazPjjqrI9X7q/QcfhsKymhbEc5eYJquZbb+XxeXQGw5LpqHTt4lOM4zO01qu6xcVrXK875RvOhbbUXp+FRK9CVecyOeb6mzv3nnqskdXSlaavaQWYqQX19CUpnM7IWasHjUHka+SZmnc+ccuV2XufPta7jfso9HmedfO496PWsIVofHXWQJ2Fl8e+11ycwkX+QKHO9GPX0ZeNtWAGS+jzjithMj9LwZJE/gJzASx6IH10nd8JRdR5LsMUXMBCT57YKs2wloLYQ2J118p2vfEG1jOVyO16HBcsdACvjCDTlCJhlH4drv4yuu7RwPbrWuyzjXPgBI1+F7GMbjHufq3gzaz+XPE1bSVjTyQ5K8MNA5IyPDFFCXnC+HoWOw3iQs5DK4ieoh3yukef587seHseTzHOPMEHuPRApoiXYxg9XBl7yC0xkWh2OIFGu9biLuArexD/Mrg61ME9QKMr3euyxnWO/frD4yKBL1g9WWuxBAzF5bWstcZbtjhEinnh270jf86XOt1dQLcYUUj6XosbaMLVxBZpyBMwyj8PcryDQecsHP1zJdb19zhXXSfpA5DZLxSMnLmSbz7UQ8HQXyWoEPQ6GH45SSNW18LtGfufP63p4HU++e0RQ9jkEoSNagh0EvtkDB4ni12EOQ8qvjuqHmQ9p1XnEAPGFf/At1FzQASpe8aWQdtCI/PFZP+wckTUtOBufbYOWXdT5qhVG3f3OuRTQYn3LPueKy2DxzUxRQt4EHIeFhHhmhGyX4L8W123MEXrX7xp5sKPI6+F7jwS990CUiKxg88chz8BLjGG5yPWsSU9kGNe2Nkr3r8nuS1o4bn8gkySxOvXGnT+48W41795OWkWqLh7CI+uWEBad2K5bbsQ/7Az1twhLS1h6gQIxeW3Ls2bZhSjifPnCr9+mxagtPXncAQJmmTjqrs65+aovzrZ0T/Qpv7ZhVdr1j7WLPbjOn9+5EvPsx167Nm0LnKg2DXeuLT7wlyLeMyFjumsffk65O6z1bPT54+8NXtfD63hcdXJQzPUHoSbcPR35dVJaIR6WiLFMthrw6s5dbJAo/iG0tAT+ks7+Rem/VPvn1EbeP1z+sWWbVIkfK/sYdcAnkexjYHXojav8OA2nNlJPjNcPEIjJc1t32Xko9nyZmNeK3au6NQ/vUwfAGog7jsMzYJYLd93lOU8NG/eF5cuVuxFlbTSuR7b+li/dPH/dGe9zxbAfe9IUOJkxqfzXjPN6BDmO5KBqzTJ6TG65LMxe58/3engcz7j/PRL4+oPQY/Z0JA7+VMm0detW8WYWjGuuuUZN1ZGxrhnxWjkjXisrzlgXzXSNqZkaU/WyM/0zLfU4b1Ust6ZU+Tjqee81MsVoGmull4Zy0jp6/RcHZmb27bDT7PNhF4n8MKNfrStKQL94Vahn2eVSoO4OC9TLbQWiff1BPhBeFQAAKgTCqwIAAJA0hmBz6w2vD3ag8oTpXIehLuXUAfctcBE+weabVH/xFsnu2lztG9cso6Tysl233aligYqC4Dp/VmoAX6/HNZMtJTjwVZjPh9e9VtL9BxqBkAk2t681Og3MjFGCe6DFahwAqqTyYtQzoerNnR2MDg0Tefu7V4GczhQ+vTZnEx7XzA58FbXzUev7HUSGELpEzFgdSRrktq7a4pB/CwUkMiwTD0vFO7COK2DRdddmt+N92OsbHWTEcv/ARSZWHbPLxUOp6Qw6Y7l34B9neVlLMDdoUbFwuYa1L8ux9u95TuQxlhL8yaDcY/ErQ+YbAZd0uFvHvrilRL7AV+E5Hzmo47MW1yjgGYgEIRNsq6u47ASRc7crCgUkKoB3YB1XwKLVOhwpW/wlBC5yIPbtDjJ1xSV06q+8Av9weR7BfMQPzzfAkxdmhwxO8sdvdbIQB2z9cDv5TcayNCsb/ElTqWPxKcM+/4OUTA7mduE2Ax+F+Xyopb4Y+5TV1duYxy9m/etsrudxLxYKeAbqTqh7OtpjHXaMWD8ut3Drbrt+AYkKwVaH/uGagY68KDFwUQ7uIFMrmx3dj+3AP3f7BPPhLsg+AZ48cbsA9Ou1eNW2egU6e/n5npNC59rrGHSXa7/AREUfi08Z5vn3IG/gqzCdD7XYF2OfVQ14BkJLNMZ0ZKtpZsy+uSoC39R1CXTkCjK1QmV74RYXaRkJa1BOBwgeVIDY0oSaUlTznFT5WPwJHvio/uejAhRV5yIDnoFQES7B5hvPtKhLicjmFQjIxLBYcpa7LR5XcB25fonxhT2DTGl04J+LfYL5iPPiHbSoWMRruQzDwTEuOrO+y3znJChm8CLGde5syjkWdxl+BA58FILzUQR5778i6pz3XgShJlyCzYGY0m3Wax0nthocI40UwH7FtbbPCWQklvsGOuJlOmDRhmdUpuXnLCbgjy/uIFPix2v7Ve3ASc7yZGJ/q/ix+wUt8sTct0z8YUmIkyxIWbns5+Sog/nOSSE8j0FThWPJKcMbFixH4KMwnw9e5Kif643DWFavgGcgRLiDjpSbIhf8qVaYQaZmQwCjWhxDMWUY53esHoGPonRNqxjwrNFB8KdZQuWDTLGFqK0yM0WxmZbPscRvpKf2qlV8Udu2pdW4j/DNFqJ6Ac9AtUHwJwAAqBAI/gQAAEACwQYAgIgAwQYAgBAT7jEdAQAA2ESjpyMAAAAHEGwAAIgIoRNsM0wkh77EfLTmAQDVA+2wAQCgQqAdNgAAAAkEGwAAIgIEGwAAIgIEGwAAIgIEGwAAQgx6OgIAQERAT0c/eIgyPQoIsBjvtttZ+w1kDwzCfA/N9vu7AX6/4RJsPuFKHLIpigH5I0Tem3ycunlgADW4a6mjo9WdSv+QvfYXGrGYpoFW92/IStmh71wErXu1jzE05zC8hM/CzhlZeiL/mH+gevAgyJSgpTj/hYn10ESA8SarT4x6JtRvh0dPN35PE6tPVuu4CFr3ah9jaM5heImIS8QaBsru+sxPYmV5m12jbWtcPqm7qVtZGt3jWatDvta7ltv5JrIMvdzPyncObWXv285TA6qWUx/f/Q3QQHeh9c3z4bW+qEdnL02qgV6dXcvFscXFMrIGJpYDxhasi2sAWbksz3Era9CuO5fpea5d5/kWq0x7NVUH61CN+0HmeRyj73Hkq2sBjDoQTdE6ta33NbDK9L93zfWCnqPgjLrvA6PuuefPIOh6As9jc5GzD71/+bfE34uG11HL/H+/0SN8gu0YQVokeTNYI05T7zrrBu4cplTGsrxjPRNZa5xHvl6nrtxkmpo3cl4XDbV1Eunpterm0svldryOKTYsVlPUp/ebSdFwp/um5JuIh8ZW64g0mLRELqHyMjyCu76TSqpPvv310lSHsb7cT556e64vrLGNWStswvEqY51z20KbWErrCtaFRyB3kfe4Rfl9YnpE7Wd8hIa6+lxvVB7neYVa5Eb8SDt5ZHu13lhiijI5x5gp/RoFxbiW8rbNuQbWefK/d831gpyjIvC8DxSe58+DAOv5Hpum0D5K+r1ogvx+o0n4XSL6FUm8Lm3kH1dTnIZTG7M3rPkkbRsiSm+1LkxLiuQo/vFm8WM1pnkZo/OYZAd1iZf/rTvUvHQFKMuSE1uak64banqUhqmf1pgKxduJ+uu8WHuKWoZGrBuplPrcnW9/Rtl6P/nq7bV+MeQ9NmPfbgodNx+r2o8cHNY9eq7XefYjtpQS8vitH29y0OMBUs41CopxLeX+va4B43vvutYrdI6Kwdy3+9iCnD8m0Hn2OTZNoX0UuhbGOS7p9xtRIuISsYgtTagpBd8Ucba29ZNUWFJqUdmIG9vx4PCyHsNI5OqdpI6uIRoZr8Ro5+KtQB5zB43IH6tpdYWMou7dSp6jfAQ9fwXWC3RsVb5WUf39FiBCgi1ec+Sb8RglejuzPinjSTs9OkyT1mRx8Gsm72exmuenv3h1dL/FOYi1U4pc67i2k/Xp6ij+RtH1ubjI/QWptxdBrI9KHZsHyTX9lG5ro3T/mtz9eZ1nxqizfd2FUHTLG4PFIEP9LcLq0veJXr+Kx+FF3v0Xce96niNpxVZQ6PKdP5Mg6xU6Nq99aAu5WEr5/UaU8Puw5QcDIdZNrNb8lBQXmH1icXGjxnqoL5Fdv3MqEdzCNsvhXTu+TosyhFWQbtN1ECnnw4rlGzXX6R53bhdnH13QtnCe9Sl2f0Hq7YLPobDe+PUxfzzrMo6tECzKLS2Ust9xTTzOc0a7x6x5+7qLH6q4MdR6huvMcYzxyhyH4z51iaaxLD6coozX/ou9d/Oeowrhd/7cFFovyLF57UMLbhDK/v1GB7OnY2PGw2bLhL9jhKUJUdjqU2u4c87aZso06vEHAecoS4h/L4iHDWY98kNaH4QoHzhHgGlMwRavbKFqoB+2+tSY5GCEe1HWCJwjgwb+vcDCBgCAiADBrhXsd6vXh49yy65n3QEANrNHsAuJirm83gJUr/KLOUcAgNAxewS7GL9Wo/rACh13g/vSAQg74RJsZeE5Aglxnm5LaQRx8Q0c47VM/HMEALruWmtduW+zDS23985frk3gbc11GFddxI59A+U49iOSOr6CdWPMdbhrrs7Ld9x6OWd5bc+Y+bpstZ1nACgAQMUIn4UthCwb+EYIiVcQFyEQvoFjPJe5AgDpMJPCouQOFTqujuwxJXul+ZSrVpPk3dYnuJDEHYwoJnblFSjHuZ9s994AdfPdVuFbd00JZTuuGwCgGoRPsIWQ2cFp/IK4cNdTv8Ax+ZZ5kOzIRkIbH0lTPxceMHiM77bGMTiCC/lhWq06UI5rPzZB6ua3rYFn3TWllF2gPABAaURrTEchBLlBXJJ5AsfkW+ZBcg31p1lQx2kknY1/ECh4jN+2xcBi7RUoJzPlH1siSN0KUWrdK1E2ACAw0RnTka1l8aqdE8RFiJxv4BivZdpf4GEls4uiPZWmke4RSqfarQ9ufuXmUHhb3+A/Zl28AuVwyMjJYRp1+jqC1U2uk93WO7CQR901ftsHKVu+LcCPDUA1CLmF7RPERQiHb+AYr2WsRspvKwMAuca2Y7dFeoioz45g41OuWmpSaFvP4EJmXUbbfQLliP3IIFeqfHY/6PyCdXNu6xdYKLfuGr/tg5QNAKgWjRn8KYpw8J+RDppB/2QAQguCPzUw48bYe1Z0WYg1AI0MBDvEcMAffNwDAGgg2AAAEBEg2AAAEBEg2AAAEBEg2AAAEGKi1dMRAAAamOj0dAQAAGADwQYAgIgAwQYAgIgAwQYAgIgAwQYAgIgAwQYAgIgAwQYAgIgAwQYAgIgAwQYAgBCDno4AABAR0NMRAAAiCAQbAAAiAgQbAAAiAgQbAAAiAgQbAAAiAgQbAAAiAgQbAAAiAgQbAAAiAgQbAABCDHo6AgBAREBPRwAAiCAQbAAAiAgQbAAAiAgQbAAAiAgQbAAAiAgQbAAAiAgQbAAAiAgQbAAAiAgQbAAACDHo6QgAABEBPR0BACCCQLABACAiQLABACAiQLABACAiQLABACAiQLABACAiQLABACAiQLABACAiQLABACDEoKcjAABEBPR0BACACALBBgCAiADBBgCAiADBBgCAiADBBgCAiADBBgCAiADBBgCAiADBBgCAiADBBgCAEIOejgAAEBHQ0xEAACIIBBsAACICBBsAACICBBsAACICBBsAACICBBsAACICBBsAACICBBsAACICBBsAAEIMejoCAEBEQE9HAACIIBBsAACICBBsAACICBBsAACICBBsAACICBBsAACICBBsAACICBBsAACICBBsAAAIMejpCAAAEQE9HQEAIIJAsAEAICJAsAEAICJAsAEAICJAsAEAICJAsAEAICJAsAEAICI07dq1a0ZNV4SdO3fSkiVL1Fx+rr32WjUFAACzgy984QtqKj/btm2jRYsWqTknWkfXfulG6rt6lcqts2ADAECjElSwb17/ZbvzDFwiAAAQYtDTEQAAIggEGwAAIgIEGwAAIgIEGwAAIgIEGwAAIgIEGwAAIgIEGwAAIgIEGwAAIgIEG4ASaWpqqngCwA3GdHQwTt3ih9I6MK3mS6VS+wFhwUtQzTQzM1Px5FWOmUDjEdqejtMDrR43abeQQgCqS+59V1iQq4FXOWbyqidoHEIj2OPdTRTvJerPmDdohvpb0rQVRiuoMG7RM0VRpzDiVU/3sYDZSzgEe3qA1g4RtfRvpJ6YypPEqGdiwpUHQPG4Rc0telHGfSzuYwWzh3AIdmaKJsWfxFI/ZZ6mgVZx83XnOkfYMm9qHRBraB/yuLWuvmHlMrW9yvPzMztcMnI7J26XTWF/tS4Xbp16YF4rt6jNZtzHap4HEG3CIdjxZmoRf4ZG/GRNWNp9XbyCS/jGaURY5l19PWINi8neNprqUzfrmNhmspfiTZ1EG1Vepp+oN05u7Z8UeZ20Ud3kGeonsZ2xEou1w2Wj9oOPjOHCFCfrWlqpkTHPg3l+QPQIh2DHemhjv5DsoTbrZvKwpCnZQV00RGtNgRwfETld1JFU84KW/gwN6nm5jcvVEltKCfEn7XKM83YT2ZXUA2ItWcWN07reSdd+rDpP9q7LYz2zS4d/KINkVBFUAS1CpjiBXMzzA+GOHqH56BjrmbBvpEzzWvtmyroTktTBBvPwqO2qGJfmdUd1xFBa/ZM0lRHT01spLf64XTaxpVL68VG0TmTvkaxQg+Doc2aeRxBuQiPYJrZ4s0vDsKqTa/qpZXKYRnlWfqhsof41NbBdpY+9hZrjal5jijqoGW6R5gRKxzyPEO5wE0rBtlEujUmtiLF2SrVM0rBQ7OnRYZpsSVG70+itMEqk/YTZT8hBVXALNag8EO7wEZ2ejsoV0WIrYozaU0I6h9fRuuFJx8fGSiMfCJQg6QXx8XtPb5WOEmsdUDUg1LUHwh0ewtfTcbxb3BTupm/TNNDZK0Szi/qMhtix9hS1TA7R0KTzY2O5OD4eTg9Qp/zIuEb5x5O0Rn5g7FQfIQU563iBZn3lAKGuPxDucBEOwU6uof6WIWpTN4WV4tRL/ZRxt7CI9RA34Kj0x8YWsc+1umyr/Z7RaoSLnSCrJZ//OqBy8DmGUIcHU7hB/WjatWtXRX8RO3fupCVLlqi5KiAs29b4MKUy6AE5G9GCAKEOL7hGlWHbtm20aNEiNedE6+jaL91IfVevUrlh92F7UJuPjaDWyLcWWNWRQF8jfc1A7YiYYKsOLKn2qn1sBLUHQh1NTOEGtSFigp2kQXGDwG88O9AWGoQ62mjRhnBXn8i5RMDsQAs1xHp2oK8lRLu6QLBBzYFVPXuBaFcXCDaoKRDr2Q9Eu7JgTEdQc/gHDLFuHLRoQ7jLJ7RjOoLZiRZqiHVjoa85RLtyQLBBVYFVDSDalQOCDaoGxBpoINqVAYINqgLEGriBaJcPBBtUHIg18AOiXR4QbFBRINagEBDt0oFgg4oBsQZBgWiXBgQbVASINSgWiHbxQLBB2UCsQalAtAuDno4AABAR0NMRVAxY16BcYGUHB4INSgZiDSoFRDsYEGxQEhBrUGkg2oWBYAMAQESAYIOigXUNqgWs7PxAsEFRQKxBtYFo+wPBBgCAiADBBoGBdQ1qBaxsbyDYAAAQYtDTERQNrGtQa2BlW6CnIygKiDWoFxBtJxBsAACICBBsAACICBBskBe4Q0C9gVskCwQbAAAiAgQb+ALrGoQFWNkWEGwAAIgIEGwAAIgIEGzgCdwhIGw0qlsEPR0BACAioKcjAABEEAg2yAHuEBBWGr21CAQbhIvxbvmD1Kl1YFot8Gd6oNWxTTa10sD0NA208nQ3jav1s6hlrQNiCoDwA8EG4YHFui1N/ZkZaUnNZPqJeuOBRJuoi8Z4G0eaoJ5YjHomxsTSIVrr2s/0QCf1TortJnoopvIACDMQbBAShLW7dkjobp8QWZUV66G+LqLJ4dEyLeAkrelvocneTmFxqyxhb6/rnaSW/jViKQDRAIINQkKGpiaJWprjat4i2SEVm0bL9FnEejZSf8sk9a6zHCPTA2tpqKWfNtpPBwDCDwQbOGDfL7sTas70VkqLP4mlXgI6SVMZNenLELUZ/utcN0qMejb2U8vQWhoYH6DOXqL+jXCFRBG+P/kaNyIQbBAOMlNClksj1jNh+K1FGuuiyd44NXW7PjNKF4uwstt6adJ0vQAQESDYYPaRHCSh2cLoHslpGRJvblFTAEQD9HQE4SPeTJWUUkuY07TV9IxMsytkkrq6hJqza6RMvzgAtQA9HUH4iC2lhJrMpYVc3yJLYJoGOtkVMkaDg2usD5CdaH8NogUEG4SEOLFRPDTidGKMjwwJvU5Re1H+5mkaHeYmJ8Z24+uod7KF+tdwIz71AXKylzphZoMIAcEGIUGIKDe6Nl0V0wPETbNbUu12aw7dqzHbCmScul29GK0OMdykW7cCEeu0DVFL/0ZHG++Nsm32uhw/NwBhBYINwkNykGbGEtQbV83z4tz2LkMTeZtzsGXubNJnbTZDg7JHDHc/b/Nscx3r6ZM9INvQNR1EhKZdu3ZVtNHtzp07acmSJWoOFI0QnBxq2C6aBa8u7bABKIKa36dV+F1u27aNFi1apOacaB1d+6Ubqe/qVSoXFna44JuCbwJ38rpZAAC1IUS/Swh2WNA3BQAgPITsdwmXSFgwboympv8l/2pm6HPUJFJt+JyoBh4cILxYvw/+PVT/N+H125uZ+Wdrokwxh0tklsI3DN84AIAQwWJdA7eI2dMRFnZYyPe0ruFrGT46gihQs/u0ir9LWNgASLhtdrDRahoSOaoPj8aj5kFkgGCHBX5S8xNbJ0ZP19DiZauFrZdaM97Nbai9hvFi1FBe7uh7gQmTgFt14XPsTF4CqtYNfNzFrh9N+HzV7C0wJL9LDQQ7TPANoJO+IepwU9QDOVCBO1iTZnqUuKd5V8fsGRumpT8jLm02JKw1GpoQW3TiCR/6d8ipzr9LCHZYqdMNUTeSHdRFkzTsMbTM9OiwWNJFs0ivc5AxvYVqc3yTuG0hJ2lQ3AczVpfNABS7PiiaOv8uIdggJCTJGg3MPX6jCuTU1eEYe9E9Urq/u4PdBG00JKbkoAZyfXa9eLkmPFwy7lHcW7lcp/vCWRc/t04AVHyTbDwVq47WsfmP8C7dSTLfXN/AdQxNbXw2nPgfQ3af2XXKOEZQFhBsEBo8x2/0cIewcOh4IdKlkHd0dbY6edR00w0xKMW/Y0xtr9JYF8ckMcRIjuI+RF32ehlKucbFcddF7qMMt0ZsKQeZ9RoSTQXHyhnfcpysgIbZAFkOco5BJDm6Q5Ygx8APu07aqPZhnT9QeyDYIAf+UbIlVXM83CK57hA92nm5kfeSlHSpjtOPrkdxH1NBpBglmja5dUmusdwaaqzf4lEDOaS9nPlebqPxEfH20EV9ngGyvI7BTbBj4Idd/iBctYHvS74/GxUINggRuW6RDA+lbrpDfAbrtSxTn4+WeXC4AkxXQZAPnV51yTsQQ7nknh8ZL9zlLrIJ5TGAcoBgg1DhdItYr/sOwZGD9XqMQCMt0yCjq2ss36zDteJyFRREDRw81KZ9v5wsf7mnhRwEtU/v0eMDnJ9iqcYxgIqCMR1BQertFpHCq173HXrkJ8x+Qu6H3HeLEOuJ0kdPV+4Lh39YpVLdB9Nb2d7N0yLGdIt4nZ9iqcIxVAu+H7lejQbGdAQhxnrt56HCPF/31eu62/qzhC5BPoZp8fiU4yDIOsWgBglu6V/j7eKQJGkN++uHR2lAnJ+869bjGEBVgWCD0CFf+4faiF3Kua/7SrB6Ox1DieUXOo8mg8pSz37AG5fDiGVR25gfMkU5ra51cuoimB7o9ui1WABuzRG3BgkuZNnG2lPyo2DvUAul8g526XEMHsdZsWMAVQeCDXzh18/6uUUY79d97mRi9wxkn6vliM4rdMnBMeriTinSR9tN47EemhjrEkKl22avpeZ+q1RNclA39dPlTFGfy8+dUxeR4sPNBQcNzparUlva8qUH6fQSa6cU+zECDE6ccwxNI9RRoWOoJVynRnSHuEG0PpAX/FBcyHbNRGNoi1xTZuN9iGh9oOLUzcoOA0KcnZ1xLHdCfh8zqDQwGrJAsAHIg9N10UbpkHQgAY0JBBsAP5KD0rIzE8Qa1BMINigIC1XDukVAXYE7xAkEGwQCog1qDcTaAj0dAQAgIqCnIygJWNmgVsC69gaCDQAAEQGCDYoCVjaoNrCu/YFgg6KBaINqAbHODwQbAAAiAgQblASsbFBpYF0XBoINSgaiDSoFxDoYEGxQFhBtUC4Q6+BAsAEAIMSgpyOoKLCyQanAui4MejqCigPRBsUCsS4eCDaoGBBtEBSIdWlAsEFFgWiDQkCsSweCDSoORBv4AbEuDwg2qAoQbeAGYl0+EGxQNSDaQAOxrgwQbFBVINoAYl05INig6mjRhnA3FvqaQ6wrBwQb1AT+0cLabhy0UEOsywc9HUHdgGjPfmBVVxb0dAR1BaI9e4FYVxcINqgLWrQh3LMDfS0h1tUFgg3qBv+4YW1HHy3UEOvqA8EGdUeLNoQ7WuhrBqGuHRBsEAq0hQbhDj+mUEOsawsEG4QKU7hB+IBQ1xcINgglWrQh3OFAXwsIdX2BYIPQoi05CHf9MIUaYl1/INgg9EC4aw+EOjygpyOIJBDu6gOhDh/o6QgijVu4Id7lYZ5HCHW4gWCDyKLFxRRvEBy3SHMC4QaCDWYFbuGGeHtjnh+IdPSAYINZhRYhiHcW8zyY5wdEDwg2mLWY4mSKFqfZjPtYzfMAog0EGzQEpmhxcotalHEfi/tYwewBgg0aEreouUWPUxjxqqf7WMDsBYINgMAtepy8xNFM1cCrHDN51RM0DhBsAHzwEkczeQlqucmrHDOBxgM9HQGoAF6CWm4CwA16OgIAQASBYAMAQESAYAMAQESAYAMAQESAYAMAQESAYAMAQESAYAMAQESAYAMAQESAYAMAQIhBT0cAAIgI6OkIAAARBIINAAARAYINAAARAYINAAARAYINAAARAYINAAARAYINAABhZt4b7ATBBgCAELN79247QbABACAiQLABACAiQLABACAiQLABACAiQLABACAiQLABACAiQLABACAiQLABACAiQLABACAiQLABACAiQLABACAiQLABACAiQLABACAiQLABACAiQLABACAiQLABACDErL95g52adu3aNaPyK8LOnTtpyZIlag4AAIAX27Zto0WLFqk5J346CgsbAAAiQlUsbAAAAIXJZ2F7UXHBBgAAUB3gEgEAgIgAwQYAgIjQkIL91FNPqSkAAIgOsLABACAiQLABACAiQLABACAihF+wt99EK1feRNvVLAAANCoN2Q6bPzqeeuqpag4AAKKBbWGzFXtTz0JauNBKPZvUArZwVd7ChT2ks21MC1iuq9fZTjettKa337TS3u/ChSvpJl5ZbWeVKdZzzFtJ1kHv3285I8vN5i9U9XGUq/IAACCqZF0iD15D2y7bRcLipl23rqYNX2GB20Q9y6+hZbda+ZtveIgut1VScWaclj24jR4Vk9vvvJ2WrSa6Q67yKG2jJXQWr3LlJmu/ct/L6Jr1ah92mQO00jHP6+k6GASo467NN9D5vK4Q8e5rltGtqtxbl1l1BACAqJIV7PNvoKukagrOWqJEL0MPGflnXrqKzt9wh8vKXkmXrX6IMkJZH922jC67agk9xIrN2y6L05m8imkBX76B6KGMJcRmmYxXHUwC1NGGHyS0gS5XFv/KAfVQAACAiFKRj45CO2nbo5vojoeERX3mpbTqISHqj26jZZcJiWSxXn47rdrssoArhSjnQTXpZCUNSOv6MrpDPiw83DkAABAh8gu2dHdcQ9qDwS6PB1dflmOpsuVNX/kKPbTqUmFRn0k8e8cdREvYH8Kcv4oulaa22oc1WRlWXkarH7yd7nQ7qMWDokc6y1m4N9MN51tvAQAAEE2I/v/MyZE2HiJ0PwAAAABJRU5ErkJggg==;" vertex="1" parent="1">
          <mxGeometry x="293.11" y="30" width="263.77" height="750" as="geometry" />
        </mxCell>
        <mxCell id="JGCPPYY_YPL1akn_zZar-2" value="" style="rounded=0;whiteSpace=wrap;html=1;fillColor=none;strokeColor=#FF0000;strokeWidth=4;" vertex="1" parent="1">
          <mxGeometry x="300" y="440" width="250" height="60" as="geometry" />
        </mxCell>
        <mxCell id="JGCPPYY_YPL1akn_zZar-3" value="This example shows my newly-compiled Library &quot;ExampleLibrary&quot;, which contains a single part called &quot;voltage-divider&quot;.&lt;div&gt;&lt;br&gt;&lt;/div&gt;&lt;div&gt;This library is set up as a &quot;Project Library&quot;, within the SimulationTypes_Examples project.&lt;/div&gt;" style="shape=callout;whiteSpace=wrap;html=1;perimeter=calloutPerimeter;fillColor=#f8cecc;strokeColor=#b85450;direction=south;" vertex="1" parent="1">
          <mxGeometry x="550" y="390" width="245" height="145" as="geometry" />
        </mxCell>
        <mxCell id="JGCPPYY_YPL1akn_zZar-4" value="" style="rounded=0;whiteSpace=wrap;html=1;strokeWidth=4;fillColor=none;strokeColor=#3399FF;" vertex="1" parent="1">
          <mxGeometry x="300" y="510" width="250" height="260" as="geometry" />
        </mxCell>
        <mxCell id="JGCPPYY_YPL1akn_zZar-5" value="This example shows my newly-compiled Library &lt;font face=&quot;Courier New&quot;&gt;&lt;b&gt;ExampleLibrary&lt;/b&gt;&lt;/font&gt;, which contains a single part called &lt;font face=&quot;Courier New&quot;&gt;&lt;b&gt;voltage-divider&lt;/b&gt;&lt;/font&gt;.&lt;div&gt;&lt;br&gt;&lt;/div&gt;&lt;div&gt;This library is set up as a &quot;Project Library&quot;, meaning it is stored within the SimulationTypes_Examples project.&lt;/div&gt;" style="shape=callout;whiteSpace=wrap;html=1;perimeter=calloutPerimeter;fillColor=#dae8fc;strokeColor=#6c8ebf;direction=south;" vertex="1" parent="1">
          <mxGeometry x="550" y="582.5" width="245" height="147.5" as="geometry" />
        </mxCell>
      </root>
    </mxGraphModel>
  </diagram>
</mxfile>
